<?xml version="1.0" encoding="UTF-8" standalone="no"?>
<!-- Created with Inkscape (http://www.inkscape.org/) -->

<svg
   xmlns:dc="http://purl.org/dc/elements/1.1/"
   xmlns:cc="http://creativecommons.org/ns#"
   xmlns:rdf="http://www.w3.org/1999/02/22-rdf-syntax-ns#"
   xmlns:svg="http://www.w3.org/2000/svg"
   xmlns="http://www.w3.org/2000/svg"
   xmlns:sodipodi="http://sodipodi.sourceforge.net/DTD/sodipodi-0.dtd"
   xmlns:inkscape="http://www.inkscape.org/namespaces/inkscape"
   width="744.09448819"
   height="1052.3622047"
   id="svg2"
   version="1.1"
   inkscape:version="0.48.4 r9939"
   sodipodi:docname="particao.svg"
   inkscape:export-filename="/home/tinha/mestrado/dissertacao/fig/tiposParticao.png"
   inkscape:export-xdpi="47.453705"
   inkscape:export-ydpi="47.453705">
  <defs
     id="defs4" />
  <sodipodi:namedview
     id="base"
     pagecolor="#ffffff"
     bordercolor="#666666"
     borderopacity="1.0"
     inkscape:pageopacity="0.0"
     inkscape:pageshadow="2"
     inkscape:zoom="0.35"
     inkscape:cx="-399.33969"
     inkscape:cy="405.71429"
     inkscape:document-units="px"
     inkscape:current-layer="g3012"
     showgrid="false"
     inkscape:window-width="1301"
     inkscape:window-height="744"
     inkscape:window-x="65"
     inkscape:window-y="24"
     inkscape:window-maximized="1"
     showguides="true"
     inkscape:guide-bbox="true">
    <sodipodi:guide
       orientation="0,1"
       position="-1362.8571,422.85714"
       id="guide3109" />
  </sodipodi:namedview>
  <metadata
     id="metadata7">
    <rdf:RDF>
      <cc:Work
         rdf:about="">
        <dc:format>image/svg+xml</dc:format>
        <dc:type
           rdf:resource="http://purl.org/dc/dcmitype/StillImage" />
        <dc:title></dc:title>
      </cc:Work>
    </rdf:RDF>
  </metadata>
  <g
     inkscape:label="Layer 1"
     inkscape:groupmode="layer"
     id="layer1">
    <g
       transform="matrix(1.25,0,0,-1.25,-401.63437,943.00843)"
       inkscape:label="picture_partition"
       id="g3012"
       inkscape:export-filename="/home/tinha/mestrado/defesa/imagens/dmec_particoes.png"
       inkscape:export-xdpi="47.453705"
       inkscape:export-ydpi="47.453705">
      <path
         inkscape:connector-curvature="0"
         d="m -935.76243,181.46743 319.168,0 0,-179.5350014 -319.168,0 0,179.5350014 z"
         style="fill:#ffccaa;fill-opacity:1;fill-rule:nonzero;stroke:#ff6c00;stroke-width:3.20000004999999987;stroke-linecap:round;stroke-linejoin:bevel;stroke-miterlimit:4;stroke-opacity:1;stroke-dasharray:none"
         id="path3016"
         inkscape:export-filename="/home/tinha/mestrado/dissertacao/fig/tiposParticao.png"
         inkscape:export-xdpi="47.453705"
         inkscape:export-ydpi="47.453705" />
      <path
         inkscape:connector-curvature="0"
         d="m -597.24843,181.60843 319.168,0 0,-179.5350014 -319.168,0 0,179.5350014 z"
         style="fill:#ffccaa;fill-opacity:1;fill-rule:nonzero;stroke:#ff6c00;stroke-width:3.20000004999999987;stroke-linecap:round;stroke-linejoin:bevel;stroke-miterlimit:4;stroke-opacity:1;stroke-dasharray:none"
         id="path3048"
         inkscape:export-filename="/home/tinha/mestrado/dissertacao/fig/tiposParticao.png"
         inkscape:export-xdpi="47.453705"
         inkscape:export-ydpi="47.453705" />
      <path
         inkscape:connector-curvature="0"
         d="m -597.67443,91.842429 320.015,0"
         style="fill:#ffccaa;stroke:#ff6c00;stroke-width:2.40000010000000019;stroke-linecap:butt;stroke-linejoin:miter;stroke-miterlimit:4;stroke-opacity:1;stroke-dasharray:none"
         id="path3050"
         inkscape:export-filename="/home/tinha/mestrado/dissertacao/fig/tiposParticao.png"
         inkscape:export-xdpi="47.453705"
         inkscape:export-ydpi="47.453705" />
      <path
         inkscape:connector-curvature="0"
         d="m -462.15143,201.96843 11.016,0 0,-2.656 -14.813,0 0,2.656 c 1.196,1.238 2.829,2.898 4.891,4.984 2.07,2.09 3.375,3.442 3.906,4.047 1.008,1.133 1.711,2.094 2.11,2.875 0.402,0.789 0.609,1.567 0.609,2.328 0,1.239 -0.441,2.25 -1.312,3.031 -0.868,0.778 -1.997,1.172 -3.391,1.172 -0.992,0 -2.039,-0.175 -3.141,-0.515 -1.093,-0.344 -2.269,-0.867 -3.515,-1.563 l 0,3.188 c 1.269,0.508 2.457,0.894 3.562,1.156 1.102,0.258 2.113,0.391 3.031,0.391 2.415,0 4.344,-0.606 5.782,-1.813 1.433,-1.211 2.156,-2.824 2.156,-4.844 0,-0.961 -0.184,-1.871 -0.547,-2.734 -0.355,-0.855 -1.008,-1.867 -1.953,-3.031 -0.262,-0.305 -1.09,-1.18 -2.484,-2.625 -1.399,-1.438 -3.368,-3.457 -5.907,-6.047 z"
         style="fill:#000000;fill-opacity:1;fill-rule:nonzero;stroke:none"
         id="path3052"
         inkscape:export-filename="/home/tinha/mestrado/dissertacao/fig/tiposParticao.png"
         inkscape:export-xdpi="47.453705"
         inkscape:export-ydpi="47.453705" />
      <path
         inkscape:connector-curvature="0"
         d="m -430.37743,216.81243 -6.328,-8.516 6.656,-8.984 -3.391,0 -5.093,6.875 -5.094,-6.875 -3.391,0 6.797,9.156 -6.219,8.344 3.391,0 4.64,-6.235 4.641,6.235 3.391,0 z"
         style="fill:#000000;fill-opacity:1;fill-rule:nonzero;stroke:none"
         id="path3054"
         inkscape:export-filename="/home/tinha/mestrado/dissertacao/fig/tiposParticao.png"
         inkscape:export-xdpi="47.453705"
         inkscape:export-ydpi="47.453705" />
      <path
         inkscape:connector-curvature="0"
         d="m -425.05743,201.96843 5.156,0 0,17.797 -5.609,-1.125 0,2.875 5.578,1.125 3.156,0 0,-20.672 5.157,0 0,-2.656 -13.438,0 0,2.656 z"
         style="fill:#000000;fill-opacity:1;fill-rule:nonzero;stroke:none"
         id="path3056"
         inkscape:export-filename="/home/tinha/mestrado/dissertacao/fig/tiposParticao.png"
         inkscape:export-xdpi="47.453705"
         inkscape:export-ydpi="47.453705" />
      <path
         inkscape:connector-curvature="0"
         d="m -260.33943,181.60843 319.168001,0 0,-179.5350014 -319.168001,0 0,179.5350014 z"
         style="fill:#ffccaa;fill-opacity:1;fill-rule:nonzero;stroke:#ff6c00;stroke-width:3.20000004999999987;stroke-linecap:round;stroke-linejoin:bevel;stroke-miterlimit:4;stroke-opacity:1;stroke-dasharray:none"
         id="path3078"
         inkscape:export-filename="/home/tinha/mestrado/dissertacao/fig/tiposParticao.png"
         inkscape:export-xdpi="47.453705"
         inkscape:export-ydpi="47.453705" />
      <path
         inkscape:connector-curvature="0"
         d="m -153.56643,181.55343 0,-179.4260014"
         style="fill:#ffccaa;stroke:#ff6c00;stroke-width:2.40000010000000019;stroke-linecap:butt;stroke-linejoin:miter;stroke-miterlimit:4;stroke-opacity:1;stroke-dasharray:none"
         id="path3080"
         inkscape:export-filename="/home/tinha/mestrado/dissertacao/fig/tiposParticao.png"
         inkscape:export-xdpi="47.453705"
         inkscape:export-ydpi="47.453705" />
      <path
         inkscape:connector-curvature="0"
         d="m -47.804429,181.55343 0,-179.4260014"
         style="fill:#ffccaa;stroke:#ff6c00;stroke-width:2.40000010000000019;stroke-linecap:butt;stroke-linejoin:miter;stroke-miterlimit:4;stroke-opacity:1;stroke-dasharray:none"
         id="path3082"
         inkscape:export-filename="/home/tinha/mestrado/dissertacao/fig/tiposParticao.png"
         inkscape:export-xdpi="47.453705"
         inkscape:export-ydpi="47.453705" />
      <path
         inkscape:connector-curvature="0"
         d="m -127.40943,201.96843 5.156,0 0,17.797 -5.609,-1.125 0,2.875 5.578,1.125 3.156,0 0,-20.672 5.156,0 0,-2.656 -13.437,0 0,2.656 z"
         style="fill:#000000;fill-opacity:1;fill-rule:nonzero;stroke:none"
         id="path3084"
         inkscape:export-filename="/home/tinha/mestrado/dissertacao/fig/tiposParticao.png"
         inkscape:export-xdpi="47.453705"
         inkscape:export-ydpi="47.453705" />
      <path
         inkscape:connector-curvature="0"
         d="m -93.464429,216.81243 -6.328,-8.516 6.656,-8.984 -3.39,0 -5.094001,6.875 -5.094,-6.875 -3.391,0 6.797,9.156 -6.218,8.344 3.39,0 4.641,-6.235 4.640001,6.235 3.391,0 z"
         style="fill:#000000;fill-opacity:1;fill-rule:nonzero;stroke:none"
         id="path3086"
         inkscape:export-filename="/home/tinha/mestrado/dissertacao/fig/tiposParticao.png"
         inkscape:export-xdpi="47.453705"
         inkscape:export-ydpi="47.453705" />
      <path
         inkscape:connector-curvature="0"
         d="m -79.132429,211.89043 c 1.508,-0.324 2.688,-0.996 3.531,-2.016 0.852,-1.023 1.282,-2.285 1.282,-3.781 0,-2.305 -0.793,-4.086 -2.375,-5.344 -1.586,-1.262 -3.836,-1.89 -6.75,-1.89 -0.981,0 -1.993,0.101 -3.032,0.296 -1.031,0.184 -2.101,0.473 -3.203,0.86 l 0,3.047 c 0.871,-0.512 1.832,-0.899 2.875,-1.157 1.039,-0.261 2.129,-0.39 3.266,-0.39 1.976,0 3.484,0.39 4.515,1.172 1.04,0.777 1.563,1.914 1.563,3.406 0,1.371 -0.488,2.445 -1.453,3.219 -0.961,0.777 -2.301,1.171 -4.016,1.171 l -2.719,0 0,2.594 2.844,0 c 1.551,0 2.738,0.305 3.563,0.922 0.82,0.621 1.234,1.52 1.234,2.688 0,1.195 -0.43,2.113 -1.281,2.75 -0.844,0.644 -2.059,0.968 -3.641,0.968 -0.867,0 -1.793,-0.097 -2.781,-0.281 -0.992,-0.187 -2.082,-0.48 -3.266,-0.875 l 0,2.813 c 1.196,0.332 2.317,0.582 3.36,0.75 1.05,0.164 2.039,0.25 2.968,0.25 2.395,0 4.289,-0.551 5.688,-1.641 1.394,-1.086 2.094,-2.555 2.094,-4.406 0,-1.293 -0.371,-2.387 -1.11,-3.282 -0.742,-0.886 -1.793,-1.503 -3.156,-1.843 z"
         style="fill:#000000;fill-opacity:1;fill-rule:nonzero;stroke:none"
         id="path3088"
         inkscape:export-filename="/home/tinha/mestrado/dissertacao/fig/tiposParticao.png"
         inkscape:export-xdpi="47.453705"
         inkscape:export-ydpi="47.453705" />
      <path
         inkscape:connector-curvature="0"
         d="m 76.809,181.137 319.168,0 0,-179.532 -319.168,0 0,179.532 z"
         style="fill:#ffccaa;fill-opacity:1;fill-rule:nonzero;stroke:#ff6c00;stroke-width:3.20000004999999987;stroke-linecap:round;stroke-linejoin:bevel;stroke-miterlimit:4;stroke-opacity:1;stroke-dasharray:none"
         id="path3110"
         inkscape:export-filename="/home/tinha/mestrado/dissertacao/fig/tiposParticao.png"
         inkscape:export-xdpi="47.453705"
         inkscape:export-ydpi="47.453705" />
      <path
         inkscape:connector-curvature="0"
         d="m 76.388,91.371 320.015,0"
         style="fill:#ffccaa;stroke:#ff6c00;stroke-width:2.40000010000000019;stroke-linecap:butt;stroke-linejoin:miter;stroke-miterlimit:4;stroke-opacity:1;stroke-dasharray:none"
         id="path3112"
         inkscape:export-filename="/home/tinha/mestrado/dissertacao/fig/tiposParticao.png"
         inkscape:export-xdpi="47.453705"
         inkscape:export-ydpi="47.453705" />
      <path
         inkscape:connector-curvature="0"
         d="m 236.395,181.477 0,-180.211"
         style="fill:#ffccaa;stroke:#ff6c00;stroke-width:2.40000010000000019;stroke-linecap:butt;stroke-linejoin:miter;stroke-miterlimit:4;stroke-opacity:1;stroke-dasharray:none"
         id="path3114"
         inkscape:export-filename="/home/tinha/mestrado/dissertacao/fig/tiposParticao.png"
         inkscape:export-xdpi="47.453705"
         inkscape:export-ydpi="47.453705" />
      <path
         inkscape:connector-curvature="0"
         d="m 211.911,201.497 11.016,0 0,-2.656 -14.813,0 0,2.656 c 1.195,1.238 2.828,2.898 4.891,4.984 2.07,2.09 3.375,3.442 3.906,4.047 1.008,1.133 1.711,2.094 2.109,2.875 0.403,0.789 0.61,1.567 0.61,2.328 0,1.239 -0.442,2.25 -1.313,3.031 -0.867,0.778 -1.996,1.172 -3.39,1.172 -0.993,0 -2.039,-0.175 -3.141,-0.515 -1.094,-0.344 -2.27,-0.867 -3.516,-1.563 l 0,3.188 c 1.27,0.508 2.457,0.894 3.563,1.156 1.101,0.258 2.113,0.391 3.031,0.391 2.414,0 4.344,-0.606 5.781,-1.813 1.434,-1.211 2.157,-2.824 2.157,-4.844 0,-0.961 -0.184,-1.871 -0.547,-2.734 -0.356,-0.855 -1.008,-1.867 -1.953,-3.031 -0.262,-0.305 -1.09,-1.18 -2.485,-2.625 -1.398,-1.438 -3.367,-3.457 -5.906,-6.047 z"
         style="fill:#000000;fill-opacity:1;fill-rule:nonzero;stroke:none"
         id="path3116"
         inkscape:export-filename="/home/tinha/mestrado/dissertacao/fig/tiposParticao.png"
         inkscape:export-xdpi="47.453705"
         inkscape:export-ydpi="47.453705" />
      <path
         inkscape:connector-curvature="0"
         d="m 243.684,216.341 -6.328,-8.516 6.656,-8.984 -3.39,0 -5.094,6.875 -5.094,-6.875 -3.39,0 6.797,9.156 -6.219,8.344 3.39,0 4.641,-6.235 4.641,6.235 3.39,0 z"
         style="fill:#000000;fill-opacity:1;fill-rule:nonzero;stroke:none"
         id="path3118"
         inkscape:export-filename="/home/tinha/mestrado/dissertacao/fig/tiposParticao.png"
         inkscape:export-xdpi="47.453705"
         inkscape:export-ydpi="47.453705" />
      <path
         inkscape:connector-curvature="0"
         d="m 251.173,201.497 11.015,0 0,-2.656 -14.812,0 0,2.656 c 1.195,1.238 2.828,2.898 4.89,4.984 2.071,2.09 3.375,3.442 3.907,4.047 1.007,1.133 1.711,2.094 2.109,2.875 0.402,0.789 0.609,1.567 0.609,2.328 0,1.239 -0.441,2.25 -1.312,3.031 -0.867,0.778 -1.996,1.172 -3.391,1.172 -0.992,0 -2.039,-0.175 -3.14,-0.515 -1.094,-0.344 -2.27,-0.867 -3.516,-1.563 l 0,3.188 c 1.27,0.508 2.457,0.894 3.563,1.156 1.101,0.258 2.113,0.391 3.031,0.391 2.414,0 4.344,-0.606 5.781,-1.813 1.434,-1.211 2.156,-2.824 2.156,-4.844 0,-0.961 -0.183,-1.871 -0.547,-2.734 -0.355,-0.855 -1.007,-1.867 -1.953,-3.031 -0.261,-0.305 -1.09,-1.18 -2.484,-2.625 -1.399,-1.438 -3.367,-3.457 -5.906,-6.047 z"
         style="fill:#000000;fill-opacity:1;fill-rule:nonzero;stroke:none"
         id="path3120"
         inkscape:export-filename="/home/tinha/mestrado/dissertacao/fig/tiposParticao.png"
         inkscape:export-xdpi="47.453705"
         inkscape:export-ydpi="47.453705" />
      <path
         inkscape:connector-curvature="0"
         d="m 415.346,181.137 319.168,0 0,-179.532 -319.168,0 0,179.532 z"
         style="fill:#ffccaa;fill-opacity:1;fill-rule:nonzero;stroke:#ff6c00;stroke-width:3.20000004999999987;stroke-linecap:round;stroke-linejoin:bevel;stroke-miterlimit:4;stroke-opacity:1;stroke-dasharray:none"
         id="path3142"
         inkscape:export-filename="/home/tinha/mestrado/dissertacao/fig/tiposParticao.png"
         inkscape:export-xdpi="47.453705"
         inkscape:export-ydpi="47.453705" />
      <path
         inkscape:connector-curvature="0"
         d="m 414.924,91.371 320.016,0"
         style="fill:#ffccaa;stroke:#ff6c00;stroke-width:2.40000010000000019;stroke-linecap:butt;stroke-linejoin:miter;stroke-miterlimit:4;stroke-opacity:1;stroke-dasharray:none"
         id="path3144"
         inkscape:export-filename="/home/tinha/mestrado/dissertacao/fig/tiposParticao.png"
         inkscape:export-xdpi="47.453705"
         inkscape:export-ydpi="47.453705" />
      <path
         inkscape:connector-curvature="0"
         d="m 521.561,181.535 0,-89.699"
         style="fill:#ffccaa;stroke:#ff6c00;stroke-width:2.40000010000000019;stroke-linecap:butt;stroke-linejoin:miter;stroke-miterlimit:4;stroke-opacity:1;stroke-dasharray:none"
         id="path3146"
         inkscape:export-filename="/home/tinha/mestrado/dissertacao/fig/tiposParticao.png"
         inkscape:export-xdpi="47.453705"
         inkscape:export-ydpi="47.453705" />
      <path
         inkscape:connector-curvature="0"
         d="m 628.104,181.535 0,-89.699"
         style="fill:#ffccaa;stroke:#ff6c00;stroke-width:2.40000010000000019;stroke-linecap:butt;stroke-linejoin:miter;stroke-miterlimit:4;stroke-opacity:1;stroke-dasharray:none"
         id="path3148"
         inkscape:export-filename="/home/tinha/mestrado/dissertacao/fig/tiposParticao.png"
         inkscape:export-xdpi="47.453705"
         inkscape:export-ydpi="47.453705" />
      <path
         inkscape:connector-curvature="0"
         d="m 574.932,90.906 0,-89.703"
         style="fill:#ffccaa;stroke:#ff6c00;stroke-width:2.40000010000000019;stroke-linecap:butt;stroke-linejoin:miter;stroke-miterlimit:4;stroke-opacity:1;stroke-dasharray:none"
         id="path3150"
         inkscape:export-filename="/home/tinha/mestrado/dissertacao/fig/tiposParticao.png"
         inkscape:export-xdpi="47.453705"
         inkscape:export-ydpi="47.453705" />
      <path
         inkscape:connector-curvature="0"
         d="m 502.838,201.497 5.157,0 0,17.797 -5.61,-1.125 0,2.875 5.578,1.125 3.157,0 0,-20.672 5.156,0 0,-2.656 -13.438,0 0,2.656 z"
         style="fill:#000000;fill-opacity:1;fill-rule:nonzero;stroke:none"
         id="path3152"
         inkscape:export-filename="/home/tinha/mestrado/dissertacao/fig/tiposParticao.png"
         inkscape:export-xdpi="47.453705"
         inkscape:export-ydpi="47.453705" />
      <path
         inkscape:connector-curvature="0"
         d="m 536.784,216.341 -6.329,-8.516 6.657,-8.984 -3.391,0 -5.094,6.875 -5.093,-6.875 -3.391,0 6.797,9.156 -6.219,8.344 3.391,0 4.64,-6.235 4.641,6.235 3.391,0 z"
         style="fill:#000000;fill-opacity:1;fill-rule:nonzero;stroke:none"
         id="path3154"
         inkscape:export-filename="/home/tinha/mestrado/dissertacao/fig/tiposParticao.png"
         inkscape:export-xdpi="47.453705"
         inkscape:export-ydpi="47.453705" />
      <path
         inkscape:connector-curvature="0"
         d="m 551.116,211.419 c 1.507,-0.324 2.687,-0.996 3.531,-2.016 0.851,-1.023 1.281,-2.285 1.281,-3.781 0,-2.305 -0.793,-4.086 -2.375,-5.344 -1.586,-1.262 -3.836,-1.89 -6.75,-1.89 -0.98,0 -1.992,0.101 -3.031,0.296 -1.031,0.184 -2.102,0.473 -3.203,0.86 l 0,3.047 c 0.871,-0.512 1.832,-0.899 2.875,-1.157 1.039,-0.261 2.129,-0.39 3.265,-0.39 1.977,0 3.485,0.39 4.516,1.172 1.039,0.777 1.563,1.914 1.563,3.406 0,1.371 -0.489,2.445 -1.454,3.219 -0.961,0.777 -2.3,1.171 -4.015,1.171 l -2.719,0 0,2.594 2.844,0 c 1.551,0 2.738,0.305 3.562,0.922 0.821,0.621 1.235,1.52 1.235,2.688 0,1.195 -0.43,2.113 -1.282,2.75 -0.843,0.644 -2.058,0.968 -3.64,0.968 -0.867,0 -1.793,-0.097 -2.781,-0.281 -0.993,-0.187 -2.083,-0.48 -3.266,-0.875 l 0,2.813 c 1.195,0.332 2.316,0.582 3.359,0.75 1.051,0.164 2.039,0.25 2.969,0.25 2.395,0 4.289,-0.551 5.688,-1.641 1.394,-1.086 2.093,-2.555 2.093,-4.406 0,-1.293 -0.371,-2.387 -1.109,-3.282 -0.742,-0.886 -1.793,-1.503 -3.156,-1.843 z"
         style="fill:#000000;fill-opacity:1;fill-rule:nonzero;stroke:none"
         id="path3156"
         inkscape:export-filename="/home/tinha/mestrado/dissertacao/fig/tiposParticao.png"
         inkscape:export-xdpi="47.453705"
         inkscape:export-ydpi="47.453705" />
      <path
         inkscape:connector-curvature="0"
         d="m 576.752,222.169 2.657,0 -8.125,-26.297 -2.657,0 8.125,26.297 z"
         style="fill:#000000;fill-opacity:1;fill-rule:nonzero;stroke:none"
         id="path3158"
         inkscape:export-filename="/home/tinha/mestrado/dissertacao/fig/tiposParticao.png"
         inkscape:export-xdpi="47.453705"
         inkscape:export-ydpi="47.453705" />
      <path
         inkscape:connector-curvature="0"
         d="m 593.588,201.497 5.157,0 0,17.797 -5.61,-1.125 0,2.875 5.578,1.125 3.157,0 0,-20.672 5.156,0 0,-2.656 -13.438,0 0,2.656 z"
         style="fill:#000000;fill-opacity:1;fill-rule:nonzero;stroke:none"
         id="path3160"
         inkscape:export-filename="/home/tinha/mestrado/dissertacao/fig/tiposParticao.png"
         inkscape:export-xdpi="47.453705"
         inkscape:export-ydpi="47.453705" />
      <path
         inkscape:connector-curvature="0"
         d="m 627.534,216.341 -6.329,-8.516 6.657,-8.984 -3.391,0 -5.094,6.875 -5.093,-6.875 -3.391,0 6.797,9.156 -6.219,8.344 3.391,0 4.64,-6.235 4.641,6.235 3.391,0 z"
         style="fill:#000000;fill-opacity:1;fill-rule:nonzero;stroke:none"
         id="path3162"
         inkscape:export-filename="/home/tinha/mestrado/dissertacao/fig/tiposParticao.png"
         inkscape:export-xdpi="47.453705"
         inkscape:export-ydpi="47.453705" />
      <path
         inkscape:connector-curvature="0"
         d="m 635.026,201.497 11.015,0 0,-2.656 -14.812,0 0,2.656 c 1.195,1.238 2.828,2.898 4.891,4.984 2.07,2.09 3.375,3.442 3.906,4.047 1.008,1.133 1.711,2.094 2.109,2.875 0.403,0.789 0.61,1.567 0.61,2.328 0,1.239 -0.442,2.25 -1.313,3.031 -0.867,0.778 -1.996,1.172 -3.391,1.172 -0.992,0 -2.039,-0.175 -3.14,-0.515 -1.094,-0.344 -2.27,-0.867 -3.516,-1.563 l 0,3.188 c 1.27,0.508 2.457,0.894 3.563,1.156 1.101,0.258 2.113,0.391 3.031,0.391 2.414,0 4.344,-0.606 5.781,-1.813 1.434,-1.211 2.156,-2.824 2.156,-4.844 0,-0.961 -0.183,-1.871 -0.546,-2.734 -0.356,-0.855 -1.008,-1.867 -1.954,-3.031 -0.261,-0.305 -1.089,-1.18 -2.484,-2.625 -1.398,-1.438 -3.367,-3.457 -5.906,-6.047 z"
         style="fill:#000000;fill-opacity:1;fill-rule:nonzero;stroke:none"
         id="path3164"
         inkscape:export-filename="/home/tinha/mestrado/dissertacao/fig/tiposParticao.png"
         inkscape:export-xdpi="47.453705"
         inkscape:export-ydpi="47.453705" />
      <path
         inkscape:connector-curvature="0"
         d="m 752.259,181.137 319.168,0 0,-179.532 -319.168,0 0,179.532 z"
         style="fill:#ffccaa;fill-opacity:1;fill-rule:nonzero;stroke:#ff6c00;stroke-width:3.20000004999999987;stroke-linecap:round;stroke-linejoin:bevel;stroke-miterlimit:4;stroke-opacity:1;stroke-dasharray:none"
         id="path3186"
         inkscape:export-filename="/home/tinha/mestrado/dissertacao/fig/tiposParticao.png"
         inkscape:export-xdpi="47.453705"
         inkscape:export-ydpi="47.453705" />
      <path
         inkscape:connector-curvature="0"
         d="m 859.029,181.086 0,-179.43"
         style="fill:#ffccaa;stroke:#ff6c00;stroke-width:2.40000010000000019;stroke-linecap:butt;stroke-linejoin:miter;stroke-miterlimit:4;stroke-opacity:1;stroke-dasharray:none"
         id="path3188"
         inkscape:export-filename="/home/tinha/mestrado/dissertacao/fig/tiposParticao.png"
         inkscape:export-xdpi="47.453705"
         inkscape:export-ydpi="47.453705" />
      <path
         inkscape:connector-curvature="0"
         d="m 964.791,181.086 0,-179.43"
         style="fill:#ffccaa;stroke:#ff6c00;stroke-width:2.40000010000000019;stroke-linecap:butt;stroke-linejoin:miter;stroke-miterlimit:4;stroke-opacity:1;stroke-dasharray:none"
         id="path3190"
         inkscape:export-filename="/home/tinha/mestrado/dissertacao/fig/tiposParticao.png"
         inkscape:export-xdpi="47.453705"
         inkscape:export-ydpi="47.453705" />
      <path
         inkscape:connector-curvature="0"
         d="m 752.236,90.562 319.211,1.618"
         style="fill:#ffccaa;stroke:#ff6c00;stroke-width:2.40000010000000019;stroke-linecap:butt;stroke-linejoin:miter;stroke-miterlimit:4;stroke-opacity:1;stroke-dasharray:none"
         id="path3192"
         inkscape:export-filename="/home/tinha/mestrado/dissertacao/fig/tiposParticao.png"
         inkscape:export-xdpi="47.453705"
         inkscape:export-ydpi="47.453705" />
      <path
         inkscape:connector-curvature="0"
         d="m 887.357,201.497 11.016,0 0,-2.656 -14.813,0 0,2.656 c 1.195,1.238 2.828,2.898 4.891,4.984 2.07,2.09 3.375,3.442 3.906,4.047 1.008,1.133 1.711,2.094 2.109,2.875 0.403,0.789 0.61,1.567 0.61,2.328 0,1.239 -0.442,2.25 -1.313,3.031 -0.867,0.778 -1.996,1.172 -3.39,1.172 -0.993,0 -2.039,-0.175 -3.141,-0.515 -1.094,-0.344 -2.27,-0.867 -3.516,-1.563 l 0,3.188 c 1.27,0.508 2.457,0.894 3.563,1.156 1.101,0.258 2.113,0.391 3.031,0.391 2.414,0 4.344,-0.606 5.781,-1.813 1.434,-1.211 2.157,-2.824 2.157,-4.844 0,-0.961 -0.184,-1.871 -0.547,-2.734 -0.356,-0.855 -1.008,-1.867 -1.953,-3.031 -0.262,-0.305 -1.09,-1.18 -2.485,-2.625 -1.398,-1.438 -3.367,-3.457 -5.906,-6.047 z"
         style="fill:#000000;fill-opacity:1;fill-rule:nonzero;stroke:none"
         id="path3194"
         inkscape:export-filename="/home/tinha/mestrado/dissertacao/fig/tiposParticao.png"
         inkscape:export-xdpi="47.453705"
         inkscape:export-ydpi="47.453705" />
      <path
         inkscape:connector-curvature="0"
         d="m 919.13,216.341 -6.328,-8.516 6.657,-8.984 -3.391,0 -5.094,6.875 -5.094,-6.875 -3.39,0 6.797,9.156 -6.219,8.344 3.391,0 4.64,-6.235 4.641,6.235 3.39,0 z"
         style="fill:#000000;fill-opacity:1;fill-rule:nonzero;stroke:none"
         id="path3196"
         inkscape:export-filename="/home/tinha/mestrado/dissertacao/fig/tiposParticao.png"
         inkscape:export-xdpi="47.453705"
         inkscape:export-ydpi="47.453705" />
      <path
         inkscape:connector-curvature="0"
         d="m 933.466,211.419 c 1.508,-0.324 2.688,-0.996 3.532,-2.016 0.851,-1.023 1.281,-2.285 1.281,-3.781 0,-2.305 -0.793,-4.086 -2.375,-5.344 -1.586,-1.262 -3.836,-1.89 -6.75,-1.89 -0.981,0 -1.992,0.101 -3.031,0.296 -1.032,0.184 -2.102,0.473 -3.203,0.86 l 0,3.047 c 0.871,-0.512 1.832,-0.899 2.875,-1.157 1.039,-0.261 2.128,-0.39 3.265,-0.39 1.977,0 3.485,0.39 4.516,1.172 1.039,0.777 1.562,1.914 1.562,3.406 0,1.371 -0.488,2.445 -1.453,3.219 -0.961,0.777 -2.301,1.171 -4.015,1.171 l -2.719,0 0,2.594 2.844,0 c 1.55,0 2.738,0.305 3.562,0.922 0.82,0.621 1.234,1.52 1.234,2.688 0,1.195 -0.429,2.113 -1.281,2.75 -0.844,0.644 -2.058,0.968 -3.64,0.968 -0.868,0 -1.793,-0.097 -2.782,-0.281 -0.992,-0.187 -2.082,-0.48 -3.265,-0.875 l 0,2.813 c 1.195,0.332 2.316,0.582 3.359,0.75 1.051,0.164 2.039,0.25 2.969,0.25 2.394,0 4.289,-0.551 5.687,-1.641 1.395,-1.086 2.094,-2.555 2.094,-4.406 0,-1.293 -0.371,-2.387 -1.109,-3.282 -0.743,-0.886 -1.793,-1.503 -3.157,-1.843 z"
         style="fill:#000000;fill-opacity:1;fill-rule:nonzero;stroke:none"
         id="path3198"
         inkscape:export-filename="/home/tinha/mestrado/dissertacao/fig/tiposParticao.png"
         inkscape:export-xdpi="47.453705"
         inkscape:export-ydpi="47.453705" />
      <path
         inkscape:connector-curvature="0"
         d="m -810.83958,203.18164 5.156,0 0,17.797 -5.609,-1.125 0,2.875 5.578,1.125 3.156,0 0,-20.672 5.156,0 0,-2.656 -13.437,0 0,2.656 z"
         style="fill:#000000;fill-opacity:1;fill-rule:nonzero;stroke:none"
         id="path3084-5"
         inkscape:export-filename="/home/tinha/mestrado/dissertacao/fig/tiposParticao.png"
         inkscape:export-xdpi="47.453705"
         inkscape:export-ydpi="47.453705" />
      <path
         inkscape:connector-curvature="0"
         d="m -776.89458,218.02564 -6.328,-8.516 6.656,-8.984 -3.39,0 -5.094,6.875 -5.094,-6.875 -3.391,0 6.797,9.156 -6.218,8.344 3.39,0 4.641,-6.235 4.64,6.235 3.391,0 z"
         style="fill:#000000;fill-opacity:1;fill-rule:nonzero;stroke:none"
         id="path3086-3"
         inkscape:export-filename="/home/tinha/mestrado/dissertacao/fig/tiposParticao.png"
         inkscape:export-xdpi="47.453705"
         inkscape:export-ydpi="47.453705" />
      <path
         inkscape:connector-curvature="0"
         d="m -771.12736,202.93757 5.156,0 0,17.797 -5.609,-1.125 0,2.875 5.578,1.125 3.156,0 0,-20.672 5.156,0 0,-2.656 -13.437,0 0,2.656 z"
         style="fill:#000000;fill-opacity:1;fill-rule:nonzero;stroke:none"
         id="path3084-5-7"
         inkscape:export-filename="/home/tinha/mestrado/dissertacao/fig/tiposParticao.png"
         inkscape:export-xdpi="47.453705"
         inkscape:export-ydpi="47.453705" />
    </g>
  </g>
</svg>
