<?xml version="1.0" encoding="UTF-8" standalone="no"?>
<!-- Created with Inkscape (http://www.inkscape.org/) -->

<svg
   xmlns:dc="http://purl.org/dc/elements/1.1/"
   xmlns:cc="http://creativecommons.org/ns#"
   xmlns:rdf="http://www.w3.org/1999/02/22-rdf-syntax-ns#"
   xmlns:svg="http://www.w3.org/2000/svg"
   xmlns="http://www.w3.org/2000/svg"
   xmlns:sodipodi="http://sodipodi.sourceforge.net/DTD/sodipodi-0.dtd"
   xmlns:inkscape="http://www.inkscape.org/namespaces/inkscape"
   width="744.09448819"
   height="1052.3622047"
   id="svg2"
   version="1.1"
   inkscape:version="0.48.4 r9939"
   sodipodi:docname="New document 1">
  <defs
     id="defs4" />
  <sodipodi:namedview
     id="base"
     pagecolor="#ffffff"
     bordercolor="#666666"
     borderopacity="1.0"
     inkscape:pageopacity="0.0"
     inkscape:pageshadow="2"
     inkscape:zoom="0.35"
     inkscape:cx="-539.28571"
     inkscape:cy="405.71429"
     inkscape:document-units="px"
     inkscape:current-layer="g3012"
     showgrid="false"
     inkscape:window-width="1301"
     inkscape:window-height="744"
     inkscape:window-x="65"
     inkscape:window-y="24"
     inkscape:window-maximized="1" />
  <metadata
     id="metadata7">
    <rdf:RDF>
      <cc:Work
         rdf:about="">
        <dc:format>image/svg+xml</dc:format>
        <dc:type
           rdf:resource="http://purl.org/dc/dcmitype/StillImage" />
        <dc:title></dc:title>
      </cc:Work>
    </rdf:RDF>
  </metadata>
  <g
     inkscape:label="Layer 1"
     inkscape:groupmode="layer"
     id="layer1">
    <g
       transform="matrix(1.25,0,0,-1.25,-401.63437,943.00843)"
       inkscape:label="picture_partition"
       id="g3012"
       inkscape:export-filename="/home/tinha/mestrado/defesa/imagens/dmec_particoes.png"
       inkscape:export-xdpi="47.453705"
       inkscape:export-ydpi="47.453705">
      <path
         inkscape:connector-curvature="0"
         d="m -935.76243,181.46743 319.168,0 0,-179.5350014 -319.168,0 0,179.5350014 z"
         style="fill:#e6e6e6;fill-opacity:1;fill-rule:nonzero;stroke:#000000;stroke-width:3.20000005;stroke-linecap:round;stroke-linejoin:bevel;stroke-miterlimit:4;stroke-opacity:1;stroke-dasharray:none"
         id="path3016"
         inkscape:export-filename="/home/tinha/mestrado/defesa/imagens/dmec_particoes.png"
         inkscape:export-xdpi="47.453705"
         inkscape:export-ydpi="47.453705" />
      <path
         inkscape:connector-curvature="0"
         d="m -808.43343,274.25243 0,-3.078 c -1.2,0.57 -2.333,1 -3.391,1.281 -1.063,0.278 -2.09,0.422 -3.078,0.422 -1.719,0 -3.051,-0.336 -3.985,-1 -0.929,-0.668 -1.39,-1.617 -1.39,-2.844 0,-1.031 0.304,-1.816 0.922,-2.343 0.621,-0.524 1.8,-0.946 3.531,-1.266 l 1.906,-0.391 c 2.352,-0.449 4.086,-1.242 5.203,-2.374 1.121,-1.126 1.688,-2.637 1.688,-4.532 0,-2.261 -0.762,-3.976 -2.282,-5.14 -1.511,-1.168 -3.73,-1.75 -6.656,-1.75 -1.105,0 -2.285,0.129 -3.531,0.375 -1.242,0.246 -2.527,0.617 -3.859,1.109 l 0,3.25 c 1.277,-0.719 2.535,-1.262 3.765,-1.625 1.227,-0.367 2.438,-0.547 3.625,-0.547 1.801,0 3.192,0.352 4.172,1.063 0.977,0.707 1.469,1.718 1.469,3.031 0,1.144 -0.356,2.039 -1.063,2.687 -0.699,0.645 -1.851,1.129 -3.453,1.453 l -1.922,0.376 c -2.355,0.464 -4.058,1.203 -5.109,2.203 -1.055,0.996 -1.578,2.39 -1.578,4.171 0,2.059 0.723,3.688 2.172,4.876 1.457,1.183 3.461,1.781 6.015,1.781 1.09,0 2.207,-0.102 3.344,-0.297 1.133,-0.199 2.297,-0.496 3.485,-0.891 z"
         style="fill:#000000;fill-opacity:1;fill-rule:nonzero;stroke:none"
         id="path3018"
         inkscape:export-filename="/home/tinha/mestrado/defesa/imagens/dmec_particoes.png"
         inkscape:export-xdpi="47.453705"
         inkscape:export-ydpi="47.453705" />
      <path
         inkscape:connector-curvature="0"
         d="m -802.25443,269.19043 2.875,0 0,-17.5 -2.875,0 0,17.5 z m 0,6.812 2.875,0 0,-3.64 -2.875,0 0,3.64 z"
         style="fill:#000000;fill-opacity:1;fill-rule:nonzero;stroke:none"
         id="path3020"
         inkscape:export-filename="/home/tinha/mestrado/defesa/imagens/dmec_particoes.png"
         inkscape:export-xdpi="47.453705"
         inkscape:export-ydpi="47.453705" />
      <path
         inkscape:connector-curvature="0"
         d="m -778.84443,262.25243 0,-10.562 -2.875,0 0,10.469 c 0,1.652 -0.324,2.894 -0.968,3.718 -0.649,0.821 -1.618,1.235 -2.907,1.235 -1.554,0 -2.777,-0.496 -3.672,-1.485 -0.898,-0.992 -1.343,-2.34 -1.343,-4.047 l 0,-9.89 -2.891,0 0,17.5 2.891,0 0,-2.719 c 0.683,1.051 1.492,1.836 2.422,2.359 0.933,0.52 2.015,0.782 3.234,0.782 2.008,0 3.531,-0.629 4.562,-1.875 1.028,-1.243 1.547,-3.071 1.547,-5.485 z"
         style="fill:#000000;fill-opacity:1;fill-rule:nonzero;stroke:none"
         id="path3022"
         inkscape:export-filename="/home/tinha/mestrado/defesa/imagens/dmec_particoes.png"
         inkscape:export-xdpi="47.453705"
         inkscape:export-ydpi="47.453705" />
      <path
         inkscape:connector-curvature="0"
         d="m -761.62143,260.64343 c 0,2.082 -0.434,3.695 -1.297,4.844 -0.855,1.144 -2.058,1.718 -3.609,1.718 -1.543,0 -2.746,-0.574 -3.61,-1.718 -0.855,-1.149 -1.281,-2.762 -1.281,-4.844 0,-2.074 0.426,-3.684 1.281,-4.828 0.864,-1.149 2.067,-1.719 3.61,-1.719 1.551,0 2.754,0.57 3.609,1.719 0.863,1.144 1.297,2.754 1.297,4.828 z m 2.875,-6.781 c 0,-2.977 -0.664,-5.192 -1.984,-6.641 -1.325,-1.457 -3.352,-2.188 -6.079,-2.188 -1.011,0 -1.964,0.083 -2.859,0.235 -0.898,0.148 -1.769,0.379 -2.609,0.687 l 0,2.797 c 0.84,-0.457 1.676,-0.797 2.5,-1.015 0.82,-0.215 1.66,-0.328 2.515,-0.328 1.883,0 3.297,0.496 4.235,1.484 0.933,0.98 1.406,2.465 1.406,4.453 l 0,1.422 c -0.594,-1.031 -1.355,-1.805 -2.281,-2.313 -0.93,-0.511 -2.039,-0.765 -3.328,-0.765 -2.149,0 -3.879,0.816 -5.188,2.453 -1.312,1.633 -1.969,3.801 -1.969,6.5 0,2.707 0.657,4.879 1.969,6.516 1.309,1.632 3.039,2.453 5.188,2.453 1.289,0 2.398,-0.258 3.328,-0.766 0.926,-0.512 1.687,-1.285 2.281,-2.313 l 0,2.657 2.875,0 0,-15.328 z"
         style="fill:#000000;fill-opacity:1;fill-rule:nonzero;stroke:none"
         id="path3024"
         inkscape:export-filename="/home/tinha/mestrado/defesa/imagens/dmec_particoes.png"
         inkscape:export-xdpi="47.453705"
         inkscape:export-ydpi="47.453705" />
      <path
         inkscape:connector-curvature="0"
         d="m -752.84843,276.00243 2.875,0 0,-24.312 -2.875,0 0,24.312 z"
         style="fill:#000000;fill-opacity:1;fill-rule:nonzero;stroke:none"
         id="path3026"
         inkscape:export-filename="/home/tinha/mestrado/defesa/imagens/dmec_particoes.png"
         inkscape:export-xdpi="47.453705"
         inkscape:export-ydpi="47.453705" />
      <path
         inkscape:connector-curvature="0"
         d="m -729.01643,261.15943 0,-1.407 -13.218,0 c 0.121,-1.98 0.718,-3.492 1.781,-4.531 1.07,-1.031 2.562,-1.547 4.469,-1.547 1.101,0 2.172,0.133 3.203,0.406 1.039,0.27 2.07,0.676 3.094,1.219 l 0,-2.719 c -1.032,-0.437 -2.09,-0.773 -3.172,-1 -1.086,-0.226 -2.184,-0.343 -3.297,-0.343 -2.793,0 -5.008,0.812 -6.641,2.437 -1.625,1.621 -2.437,3.82 -2.437,6.594 0,2.863 0.769,5.133 2.312,6.812 1.551,1.684 3.641,2.532 6.266,2.532 2.351,0 4.211,-0.762 5.578,-2.282 1.371,-1.511 2.062,-3.57 2.062,-6.171 z m -2.875,0.843 c -0.023,1.571 -0.464,2.828 -1.328,3.766 -0.855,0.933 -1.992,1.406 -3.406,1.406 -1.605,0 -2.894,-0.457 -3.859,-1.359 -0.961,-0.906 -1.512,-2.184 -1.657,-3.828 l 10.25,0.015 z"
         style="fill:#000000;fill-opacity:1;fill-rule:nonzero;stroke:none"
         id="path3028"
         inkscape:export-filename="/home/tinha/mestrado/defesa/imagens/dmec_particoes.png"
         inkscape:export-xdpi="47.453705"
         inkscape:export-ydpi="47.453705" />
      <path
         inkscape:connector-curvature="0"
         d="m -836.79343,232.42443 0,-8.765 3.969,0 c 1.465,0 2.601,0.378 3.406,1.14 0.801,0.758 1.203,1.844 1.203,3.25 0,1.395 -0.402,2.473 -1.203,3.234 -0.805,0.758 -1.941,1.141 -3.406,1.141 l -3.969,0 z m -3.156,2.594 7.125,0 c 2.613,0 4.586,-0.598 5.922,-1.781 1.34,-1.18 2.015,-2.911 2.015,-5.188 0,-2.305 -0.675,-4.043 -2.015,-5.219 -1.336,-1.179 -3.309,-1.765 -5.922,-1.765 l -3.969,0 0,-9.375 -3.156,0 0,23.328 z"
         style="fill:#000000;fill-opacity:1;fill-rule:nonzero;stroke:none"
         id="path3030"
         inkscape:export-filename="/home/tinha/mestrado/defesa/imagens/dmec_particoes.png"
         inkscape:export-xdpi="47.453705"
         inkscape:export-ydpi="47.453705" />
      <path
         inkscape:connector-curvature="0"
         d="m -814.23443,220.48743 c -2.325,0 -3.934,-0.27 -4.828,-0.797 -0.899,-0.531 -1.344,-1.442 -1.344,-2.719 0,-1.023 0.332,-1.836 1,-2.438 0.676,-0.593 1.594,-0.89 2.75,-0.89 1.59,0 2.867,0.562 3.828,1.687 0.965,1.133 1.453,2.641 1.453,4.516 l 0,0.641 -2.859,0 z m 5.734,1.187 0,-9.984 -2.875,0 0,2.656 c -0.656,-1.063 -1.476,-1.852 -2.453,-2.359 -0.981,-0.496 -2.18,-0.75 -3.594,-0.75 -1.793,0 -3.222,0.5 -4.281,1.5 -1.055,1.007 -1.578,2.359 -1.578,4.046 0,1.965 0.656,3.454 1.969,4.454 1.32,0.996 3.289,1.5 5.906,1.5 l 4.031,0 0,0.281 c 0,1.32 -0.441,2.344 -1.312,3.062 -0.868,0.727 -2.086,1.094 -3.657,1.094 -1,0 -1.976,-0.121 -2.922,-0.359 -0.949,-0.242 -1.863,-0.602 -2.734,-1.078 l 0,2.656 c 1.051,0.402 2.07,0.707 3.063,0.906 0.988,0.207 1.953,0.313 2.89,0.313 2.528,0 4.422,-0.661 5.672,-1.969 1.246,-1.313 1.875,-3.305 1.875,-5.969 z"
         style="fill:#000000;fill-opacity:1;fill-rule:nonzero;stroke:none"
         id="path3032"
         inkscape:export-filename="/home/tinha/mestrado/defesa/imagens/dmec_particoes.png"
         inkscape:export-xdpi="47.453705"
         inkscape:export-ydpi="47.453705" />
      <path
         inkscape:connector-curvature="0"
         d="m -792.46143,226.50243 c -0.324,0.184 -0.68,0.321 -1.062,0.407 -0.375,0.089 -0.793,0.14 -1.25,0.14 -1.625,0 -2.879,-0.535 -3.75,-1.594 -0.868,-1.054 -1.297,-2.57 -1.297,-4.546 l 0,-9.219 -2.891,0 0,17.5 2.891,0 0,-2.719 c 0.601,1.059 1.39,1.848 2.359,2.359 0.965,0.52 2.145,0.782 3.531,0.782 0.196,0 0.414,-0.02 0.657,-0.047 0.238,-0.024 0.504,-0.059 0.797,-0.11 l 0.015,-2.953 z"
         style="fill:#000000;fill-opacity:1;fill-rule:nonzero;stroke:none"
         id="path3034"
         inkscape:export-filename="/home/tinha/mestrado/defesa/imagens/dmec_particoes.png"
         inkscape:export-xdpi="47.453705"
         inkscape:export-ydpi="47.453705" />
      <path
         inkscape:connector-curvature="0"
         d="m -786.60543,234.15943 0,-4.969 5.922,0 0,-2.235 -5.922,0 0,-9.5 c 0,-1.429 0.191,-2.347 0.578,-2.75 0.394,-0.406 1.191,-0.609 2.39,-0.609 l 2.954,0 0,-2.406 -2.954,0 c -2.218,0 -3.754,0.41 -4.593,1.234 -0.844,0.832 -1.266,2.344 -1.266,4.531 l 0,9.5 -2.109,0 0,2.235 2.109,0 0,4.969 2.891,0 z"
         style="fill:#000000;fill-opacity:1;fill-rule:nonzero;stroke:none"
         id="path3036"
         inkscape:export-filename="/home/tinha/mestrado/defesa/imagens/dmec_particoes.png"
         inkscape:export-xdpi="47.453705"
         inkscape:export-ydpi="47.453705" />
      <path
         inkscape:connector-curvature="0"
         d="m -776.90643,229.19043 2.875,0 0,-17.5 -2.875,0 0,17.5 z m 0,6.812 2.875,0 0,-3.64 -2.875,0 0,3.64 z"
         style="fill:#000000;fill-opacity:1;fill-rule:nonzero;stroke:none"
         id="path3038"
         inkscape:export-filename="/home/tinha/mestrado/defesa/imagens/dmec_particoes.png"
         inkscape:export-xdpi="47.453705"
         inkscape:export-ydpi="47.453705" />
      <path
         inkscape:connector-curvature="0"
         d="m -765.19943,234.15943 0,-4.969 5.922,0 0,-2.235 -5.922,0 0,-9.5 c 0,-1.429 0.191,-2.347 0.578,-2.75 0.395,-0.406 1.191,-0.609 2.391,-0.609 l 2.953,0 0,-2.406 -2.953,0 c -2.219,0 -3.754,0.41 -4.594,1.234 -0.844,0.832 -1.266,2.344 -1.266,4.531 l 0,9.5 -2.109,0 0,2.235 2.109,0 0,4.969 2.891,0 z"
         style="fill:#000000;fill-opacity:1;fill-rule:nonzero;stroke:none"
         id="path3040"
         inkscape:export-filename="/home/tinha/mestrado/defesa/imagens/dmec_particoes.png"
         inkscape:export-xdpi="47.453705"
         inkscape:export-ydpi="47.453705" />
      <path
         inkscape:connector-curvature="0"
         d="m -755.50043,229.19043 2.875,0 0,-17.5 -2.875,0 0,17.5 z m 0,6.812 2.875,0 0,-3.64 -2.875,0 0,3.64 z"
         style="fill:#000000;fill-opacity:1;fill-rule:nonzero;stroke:none"
         id="path3042"
         inkscape:export-filename="/home/tinha/mestrado/defesa/imagens/dmec_particoes.png"
         inkscape:export-xdpi="47.453705"
         inkscape:export-ydpi="47.453705" />
      <path
         inkscape:connector-curvature="0"
         d="m -739.85143,227.17443 c -1.543,0 -2.762,-0.605 -3.657,-1.812 -0.898,-1.2 -1.343,-2.848 -1.343,-4.938 0,-2.094 0.441,-3.746 1.328,-4.953 0.894,-1.199 2.117,-1.797 3.672,-1.797 1.527,0 2.742,0.602 3.64,1.813 0.895,1.207 1.344,2.851 1.344,4.937 0,2.07 -0.449,3.711 -1.344,4.922 -0.898,1.215 -2.113,1.828 -3.64,1.828 z m 0,2.438 c 2.496,0 4.46,-0.817 5.89,-2.438 1.426,-1.625 2.141,-3.879 2.141,-6.75 0,-2.867 -0.715,-5.117 -2.141,-6.75 -1.43,-1.625 -3.394,-2.437 -5.89,-2.437 -2.512,0 -4.481,0.812 -5.907,2.437 -1.418,1.633 -2.125,3.883 -2.125,6.75 0,2.871 0.707,5.125 2.125,6.75 1.426,1.621 3.395,2.438 5.907,2.438 z"
         style="fill:#000000;fill-opacity:1;fill-rule:nonzero;stroke:none"
         id="path3044"
         inkscape:export-filename="/home/tinha/mestrado/defesa/imagens/dmec_particoes.png"
         inkscape:export-xdpi="47.453705"
         inkscape:export-ydpi="47.453705" />
      <path
         inkscape:connector-curvature="0"
         d="m -712.53543,222.25243 0,-10.562 -2.875,0 0,10.469 c 0,1.652 -0.324,2.894 -0.969,3.718 -0.648,0.821 -1.617,1.235 -2.906,1.235 -1.555,0 -2.777,-0.496 -3.672,-1.485 -0.898,-0.992 -1.344,-2.34 -1.344,-4.047 l 0,-9.89 -2.89,0 0,17.5 2.89,0 0,-2.719 c 0.684,1.051 1.492,1.836 2.422,2.359 0.934,0.52 2.016,0.782 3.235,0.782 2.007,0 3.531,-0.629 4.562,-1.875 1.027,-1.243 1.547,-3.071 1.547,-5.485 z"
         style="fill:#000000;fill-opacity:1;fill-rule:nonzero;stroke:none"
         id="path3046"
         inkscape:export-filename="/home/tinha/mestrado/defesa/imagens/dmec_particoes.png"
         inkscape:export-xdpi="47.453705"
         inkscape:export-ydpi="47.453705" />
      <path
         inkscape:connector-curvature="0"
         d="m -597.24843,181.60843 319.168,0 0,-179.5350014 -319.168,0 0,179.5350014 z"
         style="fill:#e6e6e6;fill-opacity:1;fill-rule:nonzero;stroke:#000000;stroke-width:3.20000005;stroke-linecap:round;stroke-linejoin:bevel;stroke-miterlimit:4;stroke-opacity:1;stroke-dasharray:none"
         id="path3048"
         inkscape:export-filename="/home/tinha/mestrado/defesa/imagens/dmec_particoes.png"
         inkscape:export-xdpi="47.453705"
         inkscape:export-ydpi="47.453705" />
      <path
         inkscape:connector-curvature="0"
         d="m -597.67443,91.842429 320.015,0"
         style="fill:none;stroke:#000000;stroke-width:2.4000001;stroke-linecap:butt;stroke-linejoin:miter;stroke-miterlimit:4;stroke-opacity:1;stroke-dasharray:none"
         id="path3050"
         inkscape:export-filename="/home/tinha/mestrado/defesa/imagens/dmec_particoes.png"
         inkscape:export-xdpi="47.453705"
         inkscape:export-ydpi="47.453705" />
      <path
         inkscape:connector-curvature="0"
         d="m -462.15143,254.76843 11.016,0 0,-2.656 -14.813,0 0,2.656 c 1.196,1.238 2.829,2.898 4.891,4.984 2.07,2.09 3.375,3.442 3.906,4.047 1.008,1.133 1.711,2.094 2.11,2.875 0.402,0.789 0.609,1.567 0.609,2.328 0,1.239 -0.441,2.25 -1.312,3.031 -0.868,0.778 -1.997,1.172 -3.391,1.172 -0.992,0 -2.039,-0.175 -3.141,-0.515 -1.093,-0.344 -2.269,-0.867 -3.515,-1.563 l 0,3.188 c 1.269,0.508 2.457,0.894 3.562,1.156 1.102,0.258 2.113,0.391 3.031,0.391 2.415,0 4.344,-0.606 5.782,-1.813 1.433,-1.211 2.156,-2.824 2.156,-4.844 0,-0.961 -0.184,-1.871 -0.547,-2.734 -0.355,-0.855 -1.008,-1.867 -1.953,-3.031 -0.262,-0.305 -1.09,-1.18 -2.484,-2.625 -1.399,-1.438 -3.368,-3.457 -5.907,-6.047 z"
         style="fill:#000000;fill-opacity:1;fill-rule:nonzero;stroke:none"
         id="path3052"
         inkscape:export-filename="/home/tinha/mestrado/defesa/imagens/dmec_particoes.png"
         inkscape:export-xdpi="47.453705"
         inkscape:export-ydpi="47.453705" />
      <path
         inkscape:connector-curvature="0"
         d="m -430.37743,269.61243 -6.328,-8.516 6.656,-8.984 -3.391,0 -5.093,6.875 -5.094,-6.875 -3.391,0 6.797,9.156 -6.219,8.344 3.391,0 4.64,-6.235 4.641,6.235 3.391,0 z"
         style="fill:#000000;fill-opacity:1;fill-rule:nonzero;stroke:none"
         id="path3054"
         inkscape:export-filename="/home/tinha/mestrado/defesa/imagens/dmec_particoes.png"
         inkscape:export-xdpi="47.453705"
         inkscape:export-ydpi="47.453705" />
      <path
         inkscape:connector-curvature="0"
         d="m -425.05743,254.76843 5.156,0 0,17.797 -5.609,-1.125 0,2.875 5.578,1.125 3.156,0 0,-20.672 5.157,0 0,-2.656 -13.438,0 0,2.656 z"
         style="fill:#000000;fill-opacity:1;fill-rule:nonzero;stroke:none"
         id="path3056"
         inkscape:export-filename="/home/tinha/mestrado/defesa/imagens/dmec_particoes.png"
         inkscape:export-xdpi="47.453705"
         inkscape:export-ydpi="47.453705" />
      <path
         inkscape:connector-curvature="0"
         d="m -507.21343,232.84643 0,-8.766 3.969,0 c 1.464,0 2.601,0.379 3.406,1.141 0.801,0.758 1.203,1.844 1.203,3.25 0,1.395 -0.402,2.473 -1.203,3.234 -0.805,0.758 -1.942,1.141 -3.406,1.141 l -3.969,0 z m -3.156,2.594 7.125,0 c 2.613,0 4.585,-0.598 5.921,-1.781 1.34,-1.18 2.016,-2.911 2.016,-5.188 0,-2.305 -0.676,-4.043 -2.016,-5.219 -1.336,-1.179 -3.308,-1.765 -5.921,-1.765 l -3.969,0 0,-9.375 -3.156,0 0,23.328 z"
         style="fill:#000000;fill-opacity:1;fill-rule:nonzero;stroke:none"
         id="path3058"
         inkscape:export-filename="/home/tinha/mestrado/defesa/imagens/dmec_particoes.png"
         inkscape:export-xdpi="47.453705"
         inkscape:export-ydpi="47.453705" />
      <path
         inkscape:connector-curvature="0"
         d="m -484.65143,220.90943 c -2.324,0 -3.933,-0.27 -4.828,-0.797 -0.898,-0.532 -1.344,-1.442 -1.344,-2.719 0,-1.024 0.332,-1.836 1,-2.438 0.676,-0.593 1.594,-0.89 2.75,-0.89 1.59,0 2.868,0.562 3.829,1.687 0.964,1.133 1.453,2.641 1.453,4.516 l 0,0.641 -2.86,0 z m 5.735,1.187 0,-9.984 -2.875,0 0,2.656 c -0.657,-1.063 -1.477,-1.852 -2.453,-2.359 -0.981,-0.497 -2.18,-0.75 -3.594,-0.75 -1.793,0 -3.223,0.5 -4.281,1.5 -1.055,1.007 -1.579,2.359 -1.579,4.046 0,1.965 0.657,3.454 1.969,4.454 1.32,0.996 3.289,1.5 5.906,1.5 l 4.032,0 0,0.281 c 0,1.32 -0.442,2.343 -1.313,3.062 -0.867,0.727 -2.086,1.094 -3.656,1.094 -1,0 -1.977,-0.121 -2.922,-0.359 -0.949,-0.243 -1.863,-0.602 -2.734,-1.078 l 0,2.656 c 1.05,0.402 2.07,0.707 3.062,0.906 0.988,0.207 1.953,0.312 2.891,0.312 2.527,0 4.422,-0.66 5.672,-1.968 1.246,-1.313 1.875,-3.305 1.875,-5.969 z"
         style="fill:#000000;fill-opacity:1;fill-rule:nonzero;stroke:none"
         id="path3060"
         inkscape:export-filename="/home/tinha/mestrado/defesa/imagens/dmec_particoes.png"
         inkscape:export-xdpi="47.453705"
         inkscape:export-ydpi="47.453705" />
      <path
         inkscape:connector-curvature="0"
         d="m -462.88143,226.92443 c -0.324,0.184 -0.68,0.32 -1.063,0.406 -0.375,0.09 -0.793,0.141 -1.25,0.141 -1.625,0 -2.879,-0.535 -3.75,-1.594 -0.867,-1.054 -1.297,-2.57 -1.297,-4.547 l 0,-9.218 -2.89,0 0,17.5 2.89,0 0,-2.719 c 0.602,1.058 1.391,1.848 2.36,2.359 0.965,0.52 2.144,0.781 3.531,0.781 0.195,0 0.414,-0.019 0.656,-0.046 0.239,-0.024 0.504,-0.059 0.797,-0.11 l 0.016,-2.953 z"
         style="fill:#000000;fill-opacity:1;fill-rule:nonzero;stroke:none"
         id="path3062"
         inkscape:export-filename="/home/tinha/mestrado/defesa/imagens/dmec_particoes.png"
         inkscape:export-xdpi="47.453705"
         inkscape:export-ydpi="47.453705" />
      <path
         inkscape:connector-curvature="0"
         d="m -457.02643,234.58043 0,-4.968 5.922,0 0,-2.235 -5.922,0 0,-9.5 c 0,-1.429 0.192,-2.347 0.578,-2.75 0.395,-0.406 1.192,-0.609 2.391,-0.609 l 2.953,0 0,-2.406 -2.953,0 c -2.219,0 -3.754,0.41 -4.594,1.234 -0.843,0.832 -1.265,2.344 -1.265,4.531 l 0,9.5 -2.11,0 0,2.235 2.11,0 0,4.968 2.89,0 z"
         style="fill:#000000;fill-opacity:1;fill-rule:nonzero;stroke:none"
         id="path3064"
         inkscape:export-filename="/home/tinha/mestrado/defesa/imagens/dmec_particoes.png"
         inkscape:export-xdpi="47.453705"
         inkscape:export-ydpi="47.453705" />
      <path
         inkscape:connector-curvature="0"
         d="m -447.32643,229.61243 2.875,0 0,-17.5 -2.875,0 0,17.5 z m 0,6.812 2.875,0 0,-3.641 -2.875,0 0,3.641 z"
         style="fill:#000000;fill-opacity:1;fill-rule:nonzero;stroke:none"
         id="path3066"
         inkscape:export-filename="/home/tinha/mestrado/defesa/imagens/dmec_particoes.png"
         inkscape:export-xdpi="47.453705"
         inkscape:export-ydpi="47.453705" />
      <path
         inkscape:connector-curvature="0"
         d="m -435.61643,234.58043 0,-4.968 5.922,0 0,-2.235 -5.922,0 0,-9.5 c 0,-1.429 0.192,-2.347 0.579,-2.75 0.394,-0.406 1.191,-0.609 2.39,-0.609 l 2.953,0 0,-2.406 -2.953,0 c -2.219,0 -3.754,0.41 -4.594,1.234 -0.843,0.832 -1.265,2.344 -1.265,4.531 l 0,9.5 -2.11,0 0,2.235 2.11,0 0,4.968 2.89,0 z"
         style="fill:#000000;fill-opacity:1;fill-rule:nonzero;stroke:none"
         id="path3068"
         inkscape:export-filename="/home/tinha/mestrado/defesa/imagens/dmec_particoes.png"
         inkscape:export-xdpi="47.453705"
         inkscape:export-ydpi="47.453705" />
      <path
         inkscape:connector-curvature="0"
         d="m -425.91643,229.61243 2.875,0 0,-17.5 -2.875,0 0,17.5 z m 0,6.812 2.875,0 0,-3.641 -2.875,0 0,3.641 z"
         style="fill:#000000;fill-opacity:1;fill-rule:nonzero;stroke:none"
         id="path3070"
         inkscape:export-filename="/home/tinha/mestrado/defesa/imagens/dmec_particoes.png"
         inkscape:export-xdpi="47.453705"
         inkscape:export-ydpi="47.453705" />
      <path
         inkscape:connector-curvature="0"
         d="m -410.27243,227.59643 c -1.543,0 -2.761,-0.605 -3.656,-1.813 -0.898,-1.199 -1.344,-2.847 -1.344,-4.937 0,-2.094 0.442,-3.746 1.328,-4.953 0.895,-1.199 2.118,-1.797 3.672,-1.797 1.528,0 2.742,0.602 3.641,1.813 0.894,1.207 1.344,2.851 1.344,4.937 0,2.07 -0.45,3.711 -1.344,4.922 -0.899,1.215 -2.113,1.828 -3.641,1.828 z m 0,2.437 c 2.496,0 4.461,-0.816 5.891,-2.437 1.426,-1.625 2.14,-3.879 2.14,-6.75 0,-2.867 -0.714,-5.117 -2.14,-6.75 -1.43,-1.625 -3.395,-2.437 -5.891,-2.437 -2.511,0 -4.48,0.812 -5.906,2.437 -1.418,1.633 -2.125,3.883 -2.125,6.75 0,2.871 0.707,5.125 2.125,6.75 1.426,1.621 3.395,2.437 5.906,2.437 z"
         style="fill:#000000;fill-opacity:1;fill-rule:nonzero;stroke:none"
         id="path3072"
         inkscape:export-filename="/home/tinha/mestrado/defesa/imagens/dmec_particoes.png"
         inkscape:export-xdpi="47.453705"
         inkscape:export-ydpi="47.453705" />
      <path
         inkscape:connector-curvature="0"
         d="m -382.95543,222.67443 0,-10.562 -2.875,0 0,10.468 c 0,1.653 -0.325,2.895 -0.969,3.719 -0.649,0.82 -1.617,1.234 -2.906,1.234 -1.555,0 -2.778,-0.496 -3.672,-1.484 -0.899,-0.992 -1.344,-2.34 -1.344,-4.047 l 0,-9.89 -2.891,0 0,17.5 2.891,0 0,-2.719 c 0.684,1.051 1.492,1.836 2.422,2.359 0.933,0.52 2.016,0.781 3.234,0.781 2.008,0 3.532,-0.628 4.563,-1.874 1.027,-1.243 1.547,-3.071 1.547,-5.485 z"
         style="fill:#000000;fill-opacity:1;fill-rule:nonzero;stroke:none"
         id="path3074"
         inkscape:export-filename="/home/tinha/mestrado/defesa/imagens/dmec_particoes.png"
         inkscape:export-xdpi="47.453705"
         inkscape:export-ydpi="47.453705" />
      <path
         inkscape:connector-curvature="0"
         d="m -366.08843,229.09643 0,-2.719 c -0.813,0.414 -1.66,0.727 -2.531,0.938 -0.875,0.207 -1.786,0.312 -2.719,0.312 -1.43,0 -2.504,-0.222 -3.219,-0.656 -0.711,-0.438 -1.062,-1.098 -1.062,-1.969 0,-0.668 0.253,-1.195 0.765,-1.578 0.508,-0.375 1.535,-0.738 3.078,-1.078 l 0.985,-0.219 c 2.039,-0.437 3.488,-1.058 4.343,-1.859 0.864,-0.793 1.297,-1.902 1.297,-3.328 0,-1.625 -0.648,-2.914 -1.937,-3.86 -1.281,-0.949 -3.051,-1.421 -5.297,-1.421 -0.938,0 -1.918,0.097 -2.938,0.281 -1.011,0.176 -2.082,0.445 -3.203,0.812 l 0,2.969 c 1.059,-0.555 2.11,-0.973 3.141,-1.25 1.027,-0.273 2.051,-0.406 3.062,-0.406 1.352,0 2.395,0.226 3.125,0.687 0.727,0.465 1.094,1.125 1.094,1.969 0,0.777 -0.269,1.379 -0.797,1.797 -0.523,0.414 -1.675,0.816 -3.453,1.203 l -1,0.234 c -1.781,0.371 -3.07,0.946 -3.859,1.719 -0.793,0.777 -1.188,1.848 -1.188,3.203 0,1.645 0.582,2.914 1.75,3.813 1.164,0.894 2.821,1.343 4.969,1.343 1.059,0 2.063,-0.082 3,-0.234 0.934,-0.156 1.801,-0.394 2.594,-0.703 z"
         style="fill:#000000;fill-opacity:1;fill-rule:nonzero;stroke:none"
         id="path3076"
         inkscape:export-filename="/home/tinha/mestrado/defesa/imagens/dmec_particoes.png"
         inkscape:export-xdpi="47.453705"
         inkscape:export-ydpi="47.453705" />
      <path
         inkscape:connector-curvature="0"
         d="m -260.33943,181.60843 319.168001,0 0,-179.5350014 -319.168001,0 0,179.5350014 z"
         style="fill:#e6e6e6;fill-opacity:1;fill-rule:nonzero;stroke:#000000;stroke-width:3.20000005;stroke-linecap:round;stroke-linejoin:bevel;stroke-miterlimit:4;stroke-opacity:1;stroke-dasharray:none"
         id="path3078"
         inkscape:export-filename="/home/tinha/mestrado/defesa/imagens/dmec_particoes.png"
         inkscape:export-xdpi="47.453705"
         inkscape:export-ydpi="47.453705" />
      <path
         inkscape:connector-curvature="0"
         d="m -153.56643,181.55343 0,-179.4260014"
         style="fill:none;stroke:#000000;stroke-width:2.4000001;stroke-linecap:butt;stroke-linejoin:miter;stroke-miterlimit:4;stroke-opacity:1;stroke-dasharray:none"
         id="path3080"
         inkscape:export-filename="/home/tinha/mestrado/defesa/imagens/dmec_particoes.png"
         inkscape:export-xdpi="47.453705"
         inkscape:export-ydpi="47.453705" />
      <path
         inkscape:connector-curvature="0"
         d="m -47.804429,181.55343 0,-179.4260014"
         style="fill:none;stroke:#000000;stroke-width:2.4000001;stroke-linecap:butt;stroke-linejoin:miter;stroke-miterlimit:4;stroke-opacity:1;stroke-dasharray:none"
         id="path3082"
         inkscape:export-filename="/home/tinha/mestrado/defesa/imagens/dmec_particoes.png"
         inkscape:export-xdpi="47.453705"
         inkscape:export-ydpi="47.453705" />
      <path
         inkscape:connector-curvature="0"
         d="m -127.40943,254.76843 5.156,0 0,17.797 -5.609,-1.125 0,2.875 5.578,1.125 3.156,0 0,-20.672 5.156,0 0,-2.656 -13.437,0 0,2.656 z"
         style="fill:#000000;fill-opacity:1;fill-rule:nonzero;stroke:none"
         id="path3084"
         inkscape:export-filename="/home/tinha/mestrado/defesa/imagens/dmec_particoes.png"
         inkscape:export-xdpi="47.453705"
         inkscape:export-ydpi="47.453705" />
      <path
         inkscape:connector-curvature="0"
         d="m -93.464429,269.61243 -6.328,-8.516 6.656,-8.984 -3.39,0 -5.094001,6.875 -5.094,-6.875 -3.391,0 6.797,9.156 -6.218,8.344 3.39,0 4.641,-6.235 4.640001,6.235 3.391,0 z"
         style="fill:#000000;fill-opacity:1;fill-rule:nonzero;stroke:none"
         id="path3086"
         inkscape:export-filename="/home/tinha/mestrado/defesa/imagens/dmec_particoes.png"
         inkscape:export-xdpi="47.453705"
         inkscape:export-ydpi="47.453705" />
      <path
         inkscape:connector-curvature="0"
         d="m -79.132429,264.69043 c 1.508,-0.324 2.688,-0.996 3.531,-2.016 0.852,-1.023 1.282,-2.285 1.282,-3.781 0,-2.305 -0.793,-4.086 -2.375,-5.344 -1.586,-1.262 -3.836,-1.89 -6.75,-1.89 -0.981,0 -1.993,0.101 -3.032,0.296 -1.031,0.184 -2.101,0.473 -3.203,0.86 l 0,3.047 c 0.871,-0.512 1.832,-0.899 2.875,-1.157 1.039,-0.261 2.129,-0.39 3.266,-0.39 1.976,0 3.484,0.39 4.515,1.172 1.04,0.777 1.563,1.914 1.563,3.406 0,1.371 -0.488,2.445 -1.453,3.219 -0.961,0.777 -2.301,1.171 -4.016,1.171 l -2.719,0 0,2.594 2.844,0 c 1.551,0 2.738,0.305 3.563,0.922 0.82,0.621 1.234,1.52 1.234,2.688 0,1.195 -0.43,2.113 -1.281,2.75 -0.844,0.644 -2.059,0.968 -3.641,0.968 -0.867,0 -1.793,-0.097 -2.781,-0.281 -0.992,-0.187 -2.082,-0.48 -3.266,-0.875 l 0,2.813 c 1.196,0.332 2.317,0.582 3.36,0.75 1.05,0.164 2.039,0.25 2.968,0.25 2.395,0 4.289,-0.551 5.688,-1.641 1.394,-1.086 2.094,-2.555 2.094,-4.406 0,-1.293 -0.371,-2.387 -1.11,-3.282 -0.742,-0.886 -1.793,-1.503 -3.156,-1.843 z"
         style="fill:#000000;fill-opacity:1;fill-rule:nonzero;stroke:none"
         id="path3088"
         inkscape:export-filename="/home/tinha/mestrado/defesa/imagens/dmec_particoes.png"
         inkscape:export-xdpi="47.453705"
         inkscape:export-ydpi="47.453705" />
      <path
         inkscape:connector-curvature="0"
         d="m -170.30043,232.84643 0,-8.766 3.969,0 c 1.465,0 2.601,0.379 3.406,1.141 0.801,0.758 1.203,1.844 1.203,3.25 0,1.395 -0.402,2.473 -1.203,3.234 -0.805,0.758 -1.941,1.141 -3.406,1.141 l -3.969,0 z m -3.156,2.594 7.125,0 c 2.613,0 4.586,-0.598 5.922,-1.781 1.34,-1.18 2.015,-2.911 2.015,-5.188 0,-2.305 -0.675,-4.043 -2.015,-5.219 -1.336,-1.179 -3.309,-1.765 -5.922,-1.765 l -3.969,0 0,-9.375 -3.156,0 0,23.328 z"
         style="fill:#000000;fill-opacity:1;fill-rule:nonzero;stroke:none"
         id="path3090"
         inkscape:export-filename="/home/tinha/mestrado/defesa/imagens/dmec_particoes.png"
         inkscape:export-xdpi="47.453705"
         inkscape:export-ydpi="47.453705" />
      <path
         inkscape:connector-curvature="0"
         d="m -147.74143,220.90943 c -2.325,0 -3.934,-0.27 -4.828,-0.797 -0.899,-0.532 -1.344,-1.442 -1.344,-2.719 0,-1.024 0.332,-1.836 1,-2.438 0.676,-0.593 1.594,-0.89 2.75,-0.89 1.59,0 2.867,0.562 3.828,1.687 0.965,1.133 1.453,2.641 1.453,4.516 l 0,0.641 -2.859,0 z m 5.734,1.187 0,-9.984 -2.875,0 0,2.656 c -0.656,-1.063 -1.477,-1.852 -2.453,-2.359 -0.981,-0.497 -2.18,-0.75 -3.594,-0.75 -1.793,0 -3.222,0.5 -4.281,1.5 -1.055,1.007 -1.578,2.359 -1.578,4.046 0,1.965 0.656,3.454 1.969,4.454 1.32,0.996 3.289,1.5 5.906,1.5 l 4.031,0 0,0.281 c 0,1.32 -0.441,2.343 -1.312,3.062 -0.868,0.727 -2.086,1.094 -3.657,1.094 -1,0 -1.976,-0.121 -2.922,-0.359 -0.949,-0.243 -1.863,-0.602 -2.734,-1.078 l 0,2.656 c 1.051,0.402 2.07,0.707 3.063,0.906 0.988,0.207 1.953,0.312 2.89,0.312 2.528,0 4.422,-0.66 5.672,-1.968 1.246,-1.313 1.875,-3.305 1.875,-5.969 z"
         style="fill:#000000;fill-opacity:1;fill-rule:nonzero;stroke:none"
         id="path3092"
         inkscape:export-filename="/home/tinha/mestrado/defesa/imagens/dmec_particoes.png"
         inkscape:export-xdpi="47.453705"
         inkscape:export-ydpi="47.453705" />
      <path
         inkscape:connector-curvature="0"
         d="m -125.96843,226.92443 c -0.324,0.184 -0.68,0.32 -1.062,0.406 -0.375,0.09 -0.793,0.141 -1.25,0.141 -1.625,0 -2.879,-0.535 -3.75,-1.594 -0.868,-1.054 -1.297,-2.57 -1.297,-4.547 l 0,-9.218 -2.891,0 0,17.5 2.891,0 0,-2.719 c 0.601,1.058 1.39,1.848 2.359,2.359 0.965,0.52 2.145,0.781 3.531,0.781 0.196,0 0.414,-0.019 0.657,-0.046 0.238,-0.024 0.504,-0.059 0.797,-0.11 l 0.015,-2.953 z"
         style="fill:#000000;fill-opacity:1;fill-rule:nonzero;stroke:none"
         id="path3094"
         inkscape:export-filename="/home/tinha/mestrado/defesa/imagens/dmec_particoes.png"
         inkscape:export-xdpi="47.453705"
         inkscape:export-ydpi="47.453705" />
      <path
         inkscape:connector-curvature="0"
         d="m -120.11243,234.58043 0,-4.968 5.921,0 0,-2.235 -5.921,0 0,-9.5 c 0,-1.429 0.191,-2.347 0.578,-2.75 0.394,-0.406 1.191,-0.609 2.39,-0.609 l 2.953,0 0,-2.406 -2.953,0 c -2.218,0 -3.754,0.41 -4.593,1.234 -0.844,0.832 -1.266,2.344 -1.266,4.531 l 0,9.5 -2.109,0 0,2.235 2.109,0 0,4.968 2.891,0 z"
         style="fill:#000000;fill-opacity:1;fill-rule:nonzero;stroke:none"
         id="path3096"
         inkscape:export-filename="/home/tinha/mestrado/defesa/imagens/dmec_particoes.png"
         inkscape:export-xdpi="47.453705"
         inkscape:export-ydpi="47.453705" />
      <path
         inkscape:connector-curvature="0"
         d="m -110.41343,229.61243 2.875,0 0,-17.5 -2.875,0 0,17.5 z m 0,6.812 2.875,0 0,-3.641 -2.875,0 0,3.641 z"
         style="fill:#000000;fill-opacity:1;fill-rule:nonzero;stroke:none"
         id="path3098"
         inkscape:export-filename="/home/tinha/mestrado/defesa/imagens/dmec_particoes.png"
         inkscape:export-xdpi="47.453705"
         inkscape:export-ydpi="47.453705" />
      <path
         inkscape:connector-curvature="0"
         d="m -98.706429,234.58043 0,-4.968 5.922,0 0,-2.235 -5.922,0 0,-9.5 c 0,-1.429 0.191,-2.347 0.578,-2.75 0.395,-0.406 1.191,-0.609 2.391,-0.609 l 2.953,0 0,-2.406 -2.953,0 c -2.219,0 -3.754,0.41 -4.594001,1.234 -0.844,0.832 -1.266,2.344 -1.266,4.531 l 0,9.5 -2.109,0 0,2.235 2.109,0 0,4.968 2.891001,0 z"
         style="fill:#000000;fill-opacity:1;fill-rule:nonzero;stroke:none"
         id="path3100"
         inkscape:export-filename="/home/tinha/mestrado/defesa/imagens/dmec_particoes.png"
         inkscape:export-xdpi="47.453705"
         inkscape:export-ydpi="47.453705" />
      <path
         inkscape:connector-curvature="0"
         d="m -89.007429,229.61243 2.875,0 0,-17.5 -2.875,0 0,17.5 z m 0,6.812 2.875,0 0,-3.641 -2.875,0 0,3.641 z"
         style="fill:#000000;fill-opacity:1;fill-rule:nonzero;stroke:none"
         id="path3102"
         inkscape:export-filename="/home/tinha/mestrado/defesa/imagens/dmec_particoes.png"
         inkscape:export-xdpi="47.453705"
         inkscape:export-ydpi="47.453705" />
      <path
         inkscape:connector-curvature="0"
         d="m -73.362429,227.59643 c -1.543,0 -2.762,-0.605 -3.657,-1.813 -0.898,-1.199 -1.343,-2.847 -1.343,-4.937 0,-2.094 0.441,-3.746 1.328,-4.953 0.894,-1.199 2.117,-1.797 3.672,-1.797 1.527,0 2.742,0.602 3.64,1.813 0.895,1.207 1.344,2.851 1.344,4.937 0,2.07 -0.449,3.711 -1.344,4.922 -0.898,1.215 -2.113,1.828 -3.64,1.828 z m 0,2.437 c 2.496,0 4.461,-0.816 5.89,-2.437 1.426,-1.625 2.141,-3.879 2.141,-6.75 0,-2.867 -0.715,-5.117 -2.141,-6.75 -1.429,-1.625 -3.394,-2.437 -5.89,-2.437 -2.512,0 -4.481,0.812 -5.907,2.437 -1.418,1.633 -2.125,3.883 -2.125,6.75 0,2.871 0.707,5.125 2.125,6.75 1.426,1.621 3.395,2.437 5.907,2.437 z"
         style="fill:#000000;fill-opacity:1;fill-rule:nonzero;stroke:none"
         id="path3104"
         inkscape:export-filename="/home/tinha/mestrado/defesa/imagens/dmec_particoes.png"
         inkscape:export-xdpi="47.453705"
         inkscape:export-ydpi="47.453705" />
      <path
         inkscape:connector-curvature="0"
         d="m -46.042429,222.67443 0,-10.562 -2.875,0 0,10.468 c 0,1.653 -0.324,2.895 -0.969,3.719 -0.648,0.82 -1.617,1.234 -2.906,1.234 -1.555,0 -2.777,-0.496 -3.672,-1.484 -0.898,-0.992 -1.344,-2.34 -1.344,-4.047 l 0,-9.89 -2.89,0 0,17.5 2.89,0 0,-2.719 c 0.684,1.051 1.492,1.836 2.422,2.359 0.934,0.52 2.016,0.781 3.235,0.781 2.007,0 3.531,-0.628 4.562,-1.874 1.027,-1.243 1.547,-3.071 1.547,-5.485 z"
         style="fill:#000000;fill-opacity:1;fill-rule:nonzero;stroke:none"
         id="path3106"
         inkscape:export-filename="/home/tinha/mestrado/defesa/imagens/dmec_particoes.png"
         inkscape:export-xdpi="47.453705"
         inkscape:export-ydpi="47.453705" />
      <path
         inkscape:connector-curvature="0"
         d="m -29.179429,229.09643 0,-2.719 c -0.812,0.414 -1.66,0.727 -2.531,0.938 -0.875,0.207 -1.785,0.312 -2.719,0.312 -1.43,0 -2.504,-0.222 -3.219,-0.656 -0.711,-0.438 -1.062,-1.098 -1.062,-1.969 0,-0.668 0.254,-1.195 0.766,-1.578 0.507,-0.375 1.535,-0.738 3.078,-1.078 l 0.984,-0.219 c 2.039,-0.437 3.488,-1.058 4.344,-1.859 0.863,-0.793 1.297,-1.902 1.297,-3.328 0,-1.625 -0.649,-2.914 -1.938,-3.86 -1.281,-0.949 -3.051,-1.421 -5.297,-1.421 -0.937,0 -1.918,0.097 -2.937,0.281 -1.012,0.176 -2.082,0.445 -3.203,0.812 l 0,2.969 c 1.058,-0.555 2.109,-0.973 3.14,-1.25 1.028,-0.273 2.051,-0.406 3.063,-0.406 1.351,0 2.394,0.226 3.125,0.687 0.726,0.465 1.094,1.125 1.094,1.969 0,0.777 -0.27,1.379 -0.797,1.797 -0.524,0.414 -1.676,0.816 -3.453,1.203 l -1,0.234 c -1.782,0.371 -3.071,0.946 -3.86,1.719 -0.793,0.777 -1.187,1.848 -1.187,3.203 0,1.645 0.582,2.914 1.75,3.813 1.164,0.894 2.82,1.343 4.968,1.343 1.059,0 2.063,-0.082 3,-0.234 0.934,-0.156 1.801,-0.394 2.594,-0.703 z"
         style="fill:#000000;fill-opacity:1;fill-rule:nonzero;stroke:none"
         id="path3108"
         inkscape:export-filename="/home/tinha/mestrado/defesa/imagens/dmec_particoes.png"
         inkscape:export-xdpi="47.453705"
         inkscape:export-ydpi="47.453705" />
      <path
         inkscape:connector-curvature="0"
         d="m 76.809,181.137 319.168,0 0,-179.532 -319.168,0 0,179.532 z"
         style="fill:#e6e6e6;fill-opacity:1;fill-rule:nonzero;stroke:#000000;stroke-width:3.20000005;stroke-linecap:round;stroke-linejoin:bevel;stroke-miterlimit:4;stroke-opacity:1;stroke-dasharray:none"
         id="path3110"
         inkscape:export-filename="/home/tinha/mestrado/defesa/imagens/dmec_particoes.png"
         inkscape:export-xdpi="47.453705"
         inkscape:export-ydpi="47.453705" />
      <path
         inkscape:connector-curvature="0"
         d="m 76.388,91.371 320.015,0"
         style="fill:none;stroke:#000000;stroke-width:2.4000001;stroke-linecap:butt;stroke-linejoin:miter;stroke-miterlimit:4;stroke-opacity:1;stroke-dasharray:none"
         id="path3112"
         inkscape:export-filename="/home/tinha/mestrado/defesa/imagens/dmec_particoes.png"
         inkscape:export-xdpi="47.453705"
         inkscape:export-ydpi="47.453705" />
      <path
         inkscape:connector-curvature="0"
         d="m 236.395,181.477 0,-180.211"
         style="fill:none;stroke:#000000;stroke-width:2.4000001;stroke-linecap:butt;stroke-linejoin:miter;stroke-miterlimit:4;stroke-opacity:1;stroke-dasharray:none"
         id="path3114"
         inkscape:export-filename="/home/tinha/mestrado/defesa/imagens/dmec_particoes.png"
         inkscape:export-xdpi="47.453705"
         inkscape:export-ydpi="47.453705" />
      <path
         inkscape:connector-curvature="0"
         d="m 211.911,254.297 11.016,0 0,-2.656 -14.813,0 0,2.656 c 1.195,1.238 2.828,2.898 4.891,4.984 2.07,2.09 3.375,3.442 3.906,4.047 1.008,1.133 1.711,2.094 2.109,2.875 0.403,0.789 0.61,1.567 0.61,2.328 0,1.239 -0.442,2.25 -1.313,3.031 -0.867,0.778 -1.996,1.172 -3.39,1.172 -0.993,0 -2.039,-0.175 -3.141,-0.515 -1.094,-0.344 -2.27,-0.867 -3.516,-1.563 l 0,3.188 c 1.27,0.508 2.457,0.894 3.563,1.156 1.101,0.258 2.113,0.391 3.031,0.391 2.414,0 4.344,-0.606 5.781,-1.813 1.434,-1.211 2.157,-2.824 2.157,-4.844 0,-0.961 -0.184,-1.871 -0.547,-2.734 -0.356,-0.855 -1.008,-1.867 -1.953,-3.031 -0.262,-0.305 -1.09,-1.18 -2.485,-2.625 -1.398,-1.438 -3.367,-3.457 -5.906,-6.047 z"
         style="fill:#000000;fill-opacity:1;fill-rule:nonzero;stroke:none"
         id="path3116"
         inkscape:export-filename="/home/tinha/mestrado/defesa/imagens/dmec_particoes.png"
         inkscape:export-xdpi="47.453705"
         inkscape:export-ydpi="47.453705" />
      <path
         inkscape:connector-curvature="0"
         d="m 243.684,269.141 -6.328,-8.516 6.656,-8.984 -3.39,0 -5.094,6.875 -5.094,-6.875 -3.39,0 6.797,9.156 -6.219,8.344 3.39,0 4.641,-6.235 4.641,6.235 3.39,0 z"
         style="fill:#000000;fill-opacity:1;fill-rule:nonzero;stroke:none"
         id="path3118"
         inkscape:export-filename="/home/tinha/mestrado/defesa/imagens/dmec_particoes.png"
         inkscape:export-xdpi="47.453705"
         inkscape:export-ydpi="47.453705" />
      <path
         inkscape:connector-curvature="0"
         d="m 251.173,254.297 11.015,0 0,-2.656 -14.812,0 0,2.656 c 1.195,1.238 2.828,2.898 4.89,4.984 2.071,2.09 3.375,3.442 3.907,4.047 1.007,1.133 1.711,2.094 2.109,2.875 0.402,0.789 0.609,1.567 0.609,2.328 0,1.239 -0.441,2.25 -1.312,3.031 -0.867,0.778 -1.996,1.172 -3.391,1.172 -0.992,0 -2.039,-0.175 -3.14,-0.515 -1.094,-0.344 -2.27,-0.867 -3.516,-1.563 l 0,3.188 c 1.27,0.508 2.457,0.894 3.563,1.156 1.101,0.258 2.113,0.391 3.031,0.391 2.414,0 4.344,-0.606 5.781,-1.813 1.434,-1.211 2.156,-2.824 2.156,-4.844 0,-0.961 -0.183,-1.871 -0.547,-2.734 -0.355,-0.855 -1.007,-1.867 -1.953,-3.031 -0.261,-0.305 -1.09,-1.18 -2.484,-2.625 -1.399,-1.438 -3.367,-3.457 -5.906,-6.047 z"
         style="fill:#000000;fill-opacity:1;fill-rule:nonzero;stroke:none"
         id="path3120"
         inkscape:export-filename="/home/tinha/mestrado/defesa/imagens/dmec_particoes.png"
         inkscape:export-xdpi="47.453705"
         inkscape:export-ydpi="47.453705" />
      <path
         inkscape:connector-curvature="0"
         d="m 166.848,232.375 0,-8.766 3.969,0 c 1.465,0 2.602,0.379 3.406,1.141 0.801,0.758 1.204,1.844 1.204,3.25 0,1.395 -0.403,2.473 -1.204,3.234 -0.804,0.758 -1.941,1.141 -3.406,1.141 l -3.969,0 z m -3.156,2.594 7.125,0 c 2.613,0 4.586,-0.598 5.922,-1.781 1.34,-1.18 2.016,-2.911 2.016,-5.188 0,-2.305 -0.676,-4.043 -2.016,-5.219 -1.336,-1.179 -3.309,-1.765 -5.922,-1.765 l -3.969,0 0,-9.375 -3.156,0 0,23.328 z"
         style="fill:#000000;fill-opacity:1;fill-rule:nonzero;stroke:none"
         id="path3122"
         inkscape:export-filename="/home/tinha/mestrado/defesa/imagens/dmec_particoes.png"
         inkscape:export-xdpi="47.453705"
         inkscape:export-ydpi="47.453705" />
      <path
         inkscape:connector-curvature="0"
         d="m 189.407,220.438 c -2.324,0 -3.934,-0.27 -4.828,-0.797 -0.899,-0.532 -1.344,-1.442 -1.344,-2.719 0,-1.024 0.332,-1.836 1,-2.438 0.676,-0.593 1.594,-0.89 2.75,-0.89 1.59,0 2.867,0.562 3.828,1.687 0.965,1.133 1.453,2.641 1.453,4.516 l 0,0.641 -2.859,0 z m 5.734,1.187 0,-9.984 -2.875,0 0,2.656 c -0.656,-1.063 -1.476,-1.852 -2.453,-2.359 -0.98,-0.497 -2.179,-0.75 -3.593,-0.75 -1.793,0 -3.223,0.5 -4.282,1.5 -1.054,1.007 -1.578,2.359 -1.578,4.046 0,1.965 0.656,3.454 1.969,4.454 1.32,0.996 3.289,1.5 5.906,1.5 l 4.031,0 0,0.281 c 0,1.32 -0.441,2.343 -1.312,3.062 -0.867,0.727 -2.086,1.094 -3.656,1.094 -1,0 -1.977,-0.121 -2.922,-0.359 -0.949,-0.243 -1.864,-0.602 -2.735,-1.078 l 0,2.656 c 1.051,0.402 2.071,0.707 3.063,0.906 0.988,0.207 1.953,0.312 2.891,0.312 2.527,0 4.421,-0.66 5.671,-1.968 1.246,-1.313 1.875,-3.305 1.875,-5.969 z"
         style="fill:#000000;fill-opacity:1;fill-rule:nonzero;stroke:none"
         id="path3124"
         inkscape:export-filename="/home/tinha/mestrado/defesa/imagens/dmec_particoes.png"
         inkscape:export-xdpi="47.453705"
         inkscape:export-ydpi="47.453705" />
      <path
         inkscape:connector-curvature="0"
         d="m 211.18,226.453 c -0.324,0.184 -0.679,0.32 -1.062,0.406 -0.375,0.09 -0.793,0.141 -1.25,0.141 -1.625,0 -2.879,-0.535 -3.75,-1.594 -0.867,-1.054 -1.297,-2.57 -1.297,-4.547 l 0,-9.218 -2.891,0 0,17.5 2.891,0 0,-2.719 c 0.602,1.058 1.391,1.848 2.359,2.359 0.965,0.52 2.145,0.781 3.532,0.781 0.195,0 0.414,-0.019 0.656,-0.046 0.238,-0.024 0.504,-0.059 0.797,-0.11 l 0.015,-2.953 z"
         style="fill:#000000;fill-opacity:1;fill-rule:nonzero;stroke:none"
         id="path3126"
         inkscape:export-filename="/home/tinha/mestrado/defesa/imagens/dmec_particoes.png"
         inkscape:export-xdpi="47.453705"
         inkscape:export-ydpi="47.453705" />
      <path
         inkscape:connector-curvature="0"
         d="m 217.036,234.109 0,-4.968 5.922,0 0,-2.235 -5.922,0 0,-9.5 c 0,-1.429 0.191,-2.347 0.578,-2.75 0.395,-0.406 1.191,-0.609 2.391,-0.609 l 2.953,0 0,-2.406 -2.953,0 c -2.219,0 -3.754,0.41 -4.594,1.234 -0.844,0.832 -1.266,2.344 -1.266,4.531 l 0,9.5 -2.109,0 0,2.235 2.109,0 0,4.968 2.891,0 z"
         style="fill:#000000;fill-opacity:1;fill-rule:nonzero;stroke:none"
         id="path3128"
         inkscape:export-filename="/home/tinha/mestrado/defesa/imagens/dmec_particoes.png"
         inkscape:export-xdpi="47.453705"
         inkscape:export-ydpi="47.453705" />
      <path
         inkscape:connector-curvature="0"
         d="m 226.735,229.141 2.875,0 0,-17.5 -2.875,0 0,17.5 z m 0,6.812 2.875,0 0,-3.641 -2.875,0 0,3.641 z"
         style="fill:#000000;fill-opacity:1;fill-rule:nonzero;stroke:none"
         id="path3130"
         inkscape:export-filename="/home/tinha/mestrado/defesa/imagens/dmec_particoes.png"
         inkscape:export-xdpi="47.453705"
         inkscape:export-ydpi="47.453705" />
      <path
         inkscape:connector-curvature="0"
         d="m 238.442,234.109 0,-4.968 5.922,0 0,-2.235 -5.922,0 0,-9.5 c 0,-1.429 0.192,-2.347 0.578,-2.75 0.395,-0.406 1.192,-0.609 2.391,-0.609 l 2.953,0 0,-2.406 -2.953,0 c -2.219,0 -3.754,0.41 -4.594,1.234 -0.844,0.832 -1.265,2.344 -1.265,4.531 l 0,9.5 -2.11,0 0,2.235 2.11,0 0,4.968 2.89,0 z"
         style="fill:#000000;fill-opacity:1;fill-rule:nonzero;stroke:none"
         id="path3132"
         inkscape:export-filename="/home/tinha/mestrado/defesa/imagens/dmec_particoes.png"
         inkscape:export-xdpi="47.453705"
         inkscape:export-ydpi="47.453705" />
      <path
         inkscape:connector-curvature="0"
         d="m 248.141,229.141 2.875,0 0,-17.5 -2.875,0 0,17.5 z m 0,6.812 2.875,0 0,-3.641 -2.875,0 0,3.641 z"
         style="fill:#000000;fill-opacity:1;fill-rule:nonzero;stroke:none"
         id="path3134"
         inkscape:export-filename="/home/tinha/mestrado/defesa/imagens/dmec_particoes.png"
         inkscape:export-xdpi="47.453705"
         inkscape:export-ydpi="47.453705" />
      <path
         inkscape:connector-curvature="0"
         d="m 263.79,227.125 c -1.543,0 -2.762,-0.605 -3.656,-1.813 -0.899,-1.199 -1.344,-2.847 -1.344,-4.937 0,-2.094 0.441,-3.746 1.328,-4.953 0.894,-1.199 2.117,-1.797 3.672,-1.797 1.527,0 2.742,0.602 3.64,1.813 0.895,1.207 1.344,2.851 1.344,4.937 0,2.07 -0.449,3.711 -1.344,4.922 -0.898,1.215 -2.113,1.828 -3.64,1.828 z m 0,2.437 c 2.496,0 4.461,-0.816 5.89,-2.437 1.426,-1.625 2.141,-3.879 2.141,-6.75 0,-2.867 -0.715,-5.117 -2.141,-6.75 -1.429,-1.625 -3.394,-2.437 -5.89,-2.437 -2.512,0 -4.481,0.812 -5.906,2.437 -1.418,1.633 -2.125,3.883 -2.125,6.75 0,2.871 0.707,5.125 2.125,6.75 1.425,1.621 3.394,2.437 5.906,2.437 z"
         style="fill:#000000;fill-opacity:1;fill-rule:nonzero;stroke:none"
         id="path3136"
         inkscape:export-filename="/home/tinha/mestrado/defesa/imagens/dmec_particoes.png"
         inkscape:export-xdpi="47.453705"
         inkscape:export-ydpi="47.453705" />
      <path
         inkscape:connector-curvature="0"
         d="m 291.106,222.203 0,-10.562 -2.875,0 0,10.468 c 0,1.653 -0.324,2.895 -0.969,3.719 -0.648,0.82 -1.617,1.234 -2.906,1.234 -1.554,0 -2.777,-0.496 -3.672,-1.484 -0.898,-0.992 -1.343,-2.34 -1.343,-4.047 l 0,-9.89 -2.891,0 0,17.5 2.891,0 0,-2.719 c 0.683,1.051 1.492,1.836 2.421,2.359 0.934,0.52 2.016,0.781 3.235,0.781 2.008,0 3.531,-0.628 4.562,-1.874 1.028,-1.243 1.547,-3.071 1.547,-5.485 z"
         style="fill:#000000;fill-opacity:1;fill-rule:nonzero;stroke:none"
         id="path3138"
         inkscape:export-filename="/home/tinha/mestrado/defesa/imagens/dmec_particoes.png"
         inkscape:export-xdpi="47.453705"
         inkscape:export-ydpi="47.453705" />
      <path
         inkscape:connector-curvature="0"
         d="m 307.97,228.625 0,-2.719 c -0.813,0.414 -1.661,0.727 -2.532,0.938 -0.875,0.207 -1.785,0.312 -2.718,0.312 -1.43,0 -2.504,-0.222 -3.219,-0.656 -0.711,-0.438 -1.063,-1.098 -1.063,-1.969 0,-0.668 0.254,-1.195 0.766,-1.578 0.508,-0.375 1.535,-0.738 3.078,-1.078 l 0.984,-0.219 c 2.039,-0.437 3.489,-1.058 4.344,-1.859 0.863,-0.793 1.297,-1.902 1.297,-3.328 0,-1.625 -0.648,-2.914 -1.937,-3.86 -1.282,-0.949 -3.051,-1.421 -5.297,-1.421 -0.938,0 -1.918,0.097 -2.938,0.281 -1.012,0.176 -2.082,0.445 -3.203,0.812 l 0,2.969 c 1.059,-0.555 2.109,-0.973 3.141,-1.25 1.027,-0.273 2.05,-0.406 3.062,-0.406 1.352,0 2.395,0.226 3.125,0.687 0.727,0.465 1.094,1.125 1.094,1.969 0,0.777 -0.27,1.379 -0.797,1.797 -0.523,0.414 -1.676,0.816 -3.453,1.203 l -1,0.234 c -1.781,0.371 -3.07,0.946 -3.859,1.719 -0.793,0.777 -1.188,1.848 -1.188,3.203 0,1.645 0.582,2.914 1.75,3.813 1.164,0.894 2.82,1.343 4.969,1.343 1.058,0 2.062,-0.082 3,-0.234 0.933,-0.156 1.801,-0.394 2.594,-0.703 z"
         style="fill:#000000;fill-opacity:1;fill-rule:nonzero;stroke:none"
         id="path3140"
         inkscape:export-filename="/home/tinha/mestrado/defesa/imagens/dmec_particoes.png"
         inkscape:export-xdpi="47.453705"
         inkscape:export-ydpi="47.453705" />
      <path
         inkscape:connector-curvature="0"
         d="m 415.346,181.137 319.168,0 0,-179.532 -319.168,0 0,179.532 z"
         style="fill:#e6e6e6;fill-opacity:1;fill-rule:nonzero;stroke:#000000;stroke-width:3.20000005;stroke-linecap:round;stroke-linejoin:bevel;stroke-miterlimit:4;stroke-opacity:1;stroke-dasharray:none"
         id="path3142"
         inkscape:export-filename="/home/tinha/mestrado/defesa/imagens/dmec_particoes.png"
         inkscape:export-xdpi="47.453705"
         inkscape:export-ydpi="47.453705" />
      <path
         inkscape:connector-curvature="0"
         d="m 414.924,91.371 320.016,0"
         style="fill:none;stroke:#000000;stroke-width:2.4000001;stroke-linecap:butt;stroke-linejoin:miter;stroke-miterlimit:4;stroke-opacity:1;stroke-dasharray:none"
         id="path3144"
         inkscape:export-filename="/home/tinha/mestrado/defesa/imagens/dmec_particoes.png"
         inkscape:export-xdpi="47.453705"
         inkscape:export-ydpi="47.453705" />
      <path
         inkscape:connector-curvature="0"
         d="m 521.561,181.535 0,-89.699"
         style="fill:none;stroke:#000000;stroke-width:2.4000001;stroke-linecap:butt;stroke-linejoin:miter;stroke-miterlimit:4;stroke-opacity:1;stroke-dasharray:none"
         id="path3146"
         inkscape:export-filename="/home/tinha/mestrado/defesa/imagens/dmec_particoes.png"
         inkscape:export-xdpi="47.453705"
         inkscape:export-ydpi="47.453705" />
      <path
         inkscape:connector-curvature="0"
         d="m 628.104,181.535 0,-89.699"
         style="fill:none;stroke:#000000;stroke-width:2.4000001;stroke-linecap:butt;stroke-linejoin:miter;stroke-miterlimit:4;stroke-opacity:1;stroke-dasharray:none"
         id="path3148"
         inkscape:export-filename="/home/tinha/mestrado/defesa/imagens/dmec_particoes.png"
         inkscape:export-xdpi="47.453705"
         inkscape:export-ydpi="47.453705" />
      <path
         inkscape:connector-curvature="0"
         d="m 574.932,90.906 0,-89.703"
         style="fill:none;stroke:#000000;stroke-width:2.4000001;stroke-linecap:butt;stroke-linejoin:miter;stroke-miterlimit:4;stroke-opacity:1;stroke-dasharray:none"
         id="path3150"
         inkscape:export-filename="/home/tinha/mestrado/defesa/imagens/dmec_particoes.png"
         inkscape:export-xdpi="47.453705"
         inkscape:export-ydpi="47.453705" />
      <path
         inkscape:connector-curvature="0"
         d="m 502.838,254.297 5.157,0 0,17.797 -5.61,-1.125 0,2.875 5.578,1.125 3.157,0 0,-20.672 5.156,0 0,-2.656 -13.438,0 0,2.656 z"
         style="fill:#000000;fill-opacity:1;fill-rule:nonzero;stroke:none"
         id="path3152"
         inkscape:export-filename="/home/tinha/mestrado/defesa/imagens/dmec_particoes.png"
         inkscape:export-xdpi="47.453705"
         inkscape:export-ydpi="47.453705" />
      <path
         inkscape:connector-curvature="0"
         d="m 536.784,269.141 -6.329,-8.516 6.657,-8.984 -3.391,0 -5.094,6.875 -5.093,-6.875 -3.391,0 6.797,9.156 -6.219,8.344 3.391,0 4.64,-6.235 4.641,6.235 3.391,0 z"
         style="fill:#000000;fill-opacity:1;fill-rule:nonzero;stroke:none"
         id="path3154"
         inkscape:export-filename="/home/tinha/mestrado/defesa/imagens/dmec_particoes.png"
         inkscape:export-xdpi="47.453705"
         inkscape:export-ydpi="47.453705" />
      <path
         inkscape:connector-curvature="0"
         d="m 551.116,264.219 c 1.507,-0.324 2.687,-0.996 3.531,-2.016 0.851,-1.023 1.281,-2.285 1.281,-3.781 0,-2.305 -0.793,-4.086 -2.375,-5.344 -1.586,-1.262 -3.836,-1.89 -6.75,-1.89 -0.98,0 -1.992,0.101 -3.031,0.296 -1.031,0.184 -2.102,0.473 -3.203,0.86 l 0,3.047 c 0.871,-0.512 1.832,-0.899 2.875,-1.157 1.039,-0.261 2.129,-0.39 3.265,-0.39 1.977,0 3.485,0.39 4.516,1.172 1.039,0.777 1.563,1.914 1.563,3.406 0,1.371 -0.489,2.445 -1.454,3.219 -0.961,0.777 -2.3,1.171 -4.015,1.171 l -2.719,0 0,2.594 2.844,0 c 1.551,0 2.738,0.305 3.562,0.922 0.821,0.621 1.235,1.52 1.235,2.688 0,1.195 -0.43,2.113 -1.282,2.75 -0.843,0.644 -2.058,0.968 -3.64,0.968 -0.867,0 -1.793,-0.097 -2.781,-0.281 -0.993,-0.187 -2.083,-0.48 -3.266,-0.875 l 0,2.813 c 1.195,0.332 2.316,0.582 3.359,0.75 1.051,0.164 2.039,0.25 2.969,0.25 2.395,0 4.289,-0.551 5.688,-1.641 1.394,-1.086 2.093,-2.555 2.093,-4.406 0,-1.293 -0.371,-2.387 -1.109,-3.282 -0.742,-0.886 -1.793,-1.503 -3.156,-1.843 z"
         style="fill:#000000;fill-opacity:1;fill-rule:nonzero;stroke:none"
         id="path3156"
         inkscape:export-filename="/home/tinha/mestrado/defesa/imagens/dmec_particoes.png"
         inkscape:export-xdpi="47.453705"
         inkscape:export-ydpi="47.453705" />
      <path
         inkscape:connector-curvature="0"
         d="m 576.752,274.969 2.657,0 -8.125,-26.297 -2.657,0 8.125,26.297 z"
         style="fill:#000000;fill-opacity:1;fill-rule:nonzero;stroke:none"
         id="path3158"
         inkscape:export-filename="/home/tinha/mestrado/defesa/imagens/dmec_particoes.png"
         inkscape:export-xdpi="47.453705"
         inkscape:export-ydpi="47.453705" />
      <path
         inkscape:connector-curvature="0"
         d="m 593.588,254.297 5.157,0 0,17.797 -5.61,-1.125 0,2.875 5.578,1.125 3.157,0 0,-20.672 5.156,0 0,-2.656 -13.438,0 0,2.656 z"
         style="fill:#000000;fill-opacity:1;fill-rule:nonzero;stroke:none"
         id="path3160"
         inkscape:export-filename="/home/tinha/mestrado/defesa/imagens/dmec_particoes.png"
         inkscape:export-xdpi="47.453705"
         inkscape:export-ydpi="47.453705" />
      <path
         inkscape:connector-curvature="0"
         d="m 627.534,269.141 -6.329,-8.516 6.657,-8.984 -3.391,0 -5.094,6.875 -5.093,-6.875 -3.391,0 6.797,9.156 -6.219,8.344 3.391,0 4.64,-6.235 4.641,6.235 3.391,0 z"
         style="fill:#000000;fill-opacity:1;fill-rule:nonzero;stroke:none"
         id="path3162"
         inkscape:export-filename="/home/tinha/mestrado/defesa/imagens/dmec_particoes.png"
         inkscape:export-xdpi="47.453705"
         inkscape:export-ydpi="47.453705" />
      <path
         inkscape:connector-curvature="0"
         d="m 635.026,254.297 11.015,0 0,-2.656 -14.812,0 0,2.656 c 1.195,1.238 2.828,2.898 4.891,4.984 2.07,2.09 3.375,3.442 3.906,4.047 1.008,1.133 1.711,2.094 2.109,2.875 0.403,0.789 0.61,1.567 0.61,2.328 0,1.239 -0.442,2.25 -1.313,3.031 -0.867,0.778 -1.996,1.172 -3.391,1.172 -0.992,0 -2.039,-0.175 -3.14,-0.515 -1.094,-0.344 -2.27,-0.867 -3.516,-1.563 l 0,3.188 c 1.27,0.508 2.457,0.894 3.563,1.156 1.101,0.258 2.113,0.391 3.031,0.391 2.414,0 4.344,-0.606 5.781,-1.813 1.434,-1.211 2.156,-2.824 2.156,-4.844 0,-0.961 -0.183,-1.871 -0.546,-2.734 -0.356,-0.855 -1.008,-1.867 -1.954,-3.031 -0.261,-0.305 -1.089,-1.18 -2.484,-2.625 -1.398,-1.438 -3.367,-3.457 -5.906,-6.047 z"
         style="fill:#000000;fill-opacity:1;fill-rule:nonzero;stroke:none"
         id="path3164"
         inkscape:export-filename="/home/tinha/mestrado/defesa/imagens/dmec_particoes.png"
         inkscape:export-xdpi="47.453705"
         inkscape:export-ydpi="47.453705" />
      <path
         inkscape:connector-curvature="0"
         d="m 505.385,232.375 0,-8.766 3.969,0 c 1.465,0 2.601,0.379 3.406,1.141 0.801,0.758 1.203,1.844 1.203,3.25 0,1.395 -0.402,2.473 -1.203,3.234 -0.805,0.758 -1.941,1.141 -3.406,1.141 l -3.969,0 z m -3.156,2.594 7.125,0 c 2.613,0 4.586,-0.598 5.922,-1.781 1.34,-1.18 2.015,-2.911 2.015,-5.188 0,-2.305 -0.675,-4.043 -2.015,-5.219 -1.336,-1.179 -3.309,-1.765 -5.922,-1.765 l -3.969,0 0,-9.375 -3.156,0 0,23.328 z"
         style="fill:#000000;fill-opacity:1;fill-rule:nonzero;stroke:none"
         id="path3166"
         inkscape:export-filename="/home/tinha/mestrado/defesa/imagens/dmec_particoes.png"
         inkscape:export-xdpi="47.453705"
         inkscape:export-ydpi="47.453705" />
      <path
         inkscape:connector-curvature="0"
         d="m 527.944,220.438 c -2.324,0 -3.934,-0.27 -4.828,-0.797 -0.899,-0.532 -1.344,-1.442 -1.344,-2.719 0,-1.024 0.332,-1.836 1,-2.438 0.676,-0.593 1.594,-0.89 2.75,-0.89 1.59,0 2.867,0.562 3.828,1.687 0.965,1.133 1.453,2.641 1.453,4.516 l 0,0.641 -2.859,0 z m 5.734,1.187 0,-9.984 -2.875,0 0,2.656 c -0.656,-1.063 -1.476,-1.852 -2.453,-2.359 -0.98,-0.497 -2.18,-0.75 -3.594,-0.75 -1.793,0 -3.222,0.5 -4.281,1.5 -1.055,1.007 -1.578,2.359 -1.578,4.046 0,1.965 0.656,3.454 1.969,4.454 1.32,0.996 3.289,1.5 5.906,1.5 l 4.031,0 0,0.281 c 0,1.32 -0.441,2.343 -1.312,3.062 -0.868,0.727 -2.086,1.094 -3.657,1.094 -1,0 -1.976,-0.121 -2.922,-0.359 -0.949,-0.243 -1.863,-0.602 -2.734,-1.078 l 0,2.656 c 1.051,0.402 2.07,0.707 3.063,0.906 0.988,0.207 1.953,0.312 2.89,0.312 2.528,0 4.422,-0.66 5.672,-1.968 1.246,-1.313 1.875,-3.305 1.875,-5.969 z"
         style="fill:#000000;fill-opacity:1;fill-rule:nonzero;stroke:none"
         id="path3168"
         inkscape:export-filename="/home/tinha/mestrado/defesa/imagens/dmec_particoes.png"
         inkscape:export-xdpi="47.453705"
         inkscape:export-ydpi="47.453705" />
      <path
         inkscape:connector-curvature="0"
         d="m 549.713,226.453 c -0.324,0.184 -0.679,0.32 -1.062,0.406 -0.375,0.09 -0.793,0.141 -1.25,0.141 -1.625,0 -2.879,-0.535 -3.75,-1.594 -0.867,-1.054 -1.297,-2.57 -1.297,-4.547 l 0,-9.218 -2.891,0 0,17.5 2.891,0 0,-2.719 c 0.601,1.058 1.391,1.848 2.359,2.359 0.965,0.52 2.145,0.781 3.532,0.781 0.195,0 0.414,-0.019 0.656,-0.046 0.238,-0.024 0.504,-0.059 0.797,-0.11 l 0.015,-2.953 z"
         style="fill:#000000;fill-opacity:1;fill-rule:nonzero;stroke:none"
         id="path3170"
         inkscape:export-filename="/home/tinha/mestrado/defesa/imagens/dmec_particoes.png"
         inkscape:export-xdpi="47.453705"
         inkscape:export-ydpi="47.453705" />
      <path
         inkscape:connector-curvature="0"
         d="m 555.569,234.109 0,-4.968 5.922,0 0,-2.235 -5.922,0 0,-9.5 c 0,-1.429 0.191,-2.347 0.578,-2.75 0.394,-0.406 1.191,-0.609 2.391,-0.609 l 2.953,0 0,-2.406 -2.953,0 c -2.219,0 -3.754,0.41 -4.594,1.234 -0.844,0.832 -1.266,2.344 -1.266,4.531 l 0,9.5 -2.109,0 0,2.235 2.109,0 0,4.968 2.891,0 z"
         style="fill:#000000;fill-opacity:1;fill-rule:nonzero;stroke:none"
         id="path3172"
         inkscape:export-filename="/home/tinha/mestrado/defesa/imagens/dmec_particoes.png"
         inkscape:export-xdpi="47.453705"
         inkscape:export-ydpi="47.453705" />
      <path
         inkscape:connector-curvature="0"
         d="m 565.272,229.141 2.875,0 0,-17.5 -2.875,0 0,17.5 z m 0,6.812 2.875,0 0,-3.641 -2.875,0 0,3.641 z"
         style="fill:#000000;fill-opacity:1;fill-rule:nonzero;stroke:none"
         id="path3174"
         inkscape:export-filename="/home/tinha/mestrado/defesa/imagens/dmec_particoes.png"
         inkscape:export-xdpi="47.453705"
         inkscape:export-ydpi="47.453705" />
      <path
         inkscape:connector-curvature="0"
         d="m 576.979,234.109 0,-4.968 5.922,0 0,-2.235 -5.922,0 0,-9.5 c 0,-1.429 0.191,-2.347 0.578,-2.75 0.395,-0.406 1.191,-0.609 2.391,-0.609 l 2.953,0 0,-2.406 -2.953,0 c -2.219,0 -3.754,0.41 -4.594,1.234 -0.844,0.832 -1.266,2.344 -1.266,4.531 l 0,9.5 -2.109,0 0,2.235 2.109,0 0,4.968 2.891,0 z"
         style="fill:#000000;fill-opacity:1;fill-rule:nonzero;stroke:none"
         id="path3176"
         inkscape:export-filename="/home/tinha/mestrado/defesa/imagens/dmec_particoes.png"
         inkscape:export-xdpi="47.453705"
         inkscape:export-ydpi="47.453705" />
      <path
         inkscape:connector-curvature="0"
         d="m 586.678,229.141 2.875,0 0,-17.5 -2.875,0 0,17.5 z m 0,6.812 2.875,0 0,-3.641 -2.875,0 0,3.641 z"
         style="fill:#000000;fill-opacity:1;fill-rule:nonzero;stroke:none"
         id="path3178"
         inkscape:export-filename="/home/tinha/mestrado/defesa/imagens/dmec_particoes.png"
         inkscape:export-xdpi="47.453705"
         inkscape:export-ydpi="47.453705" />
      <path
         inkscape:connector-curvature="0"
         d="m 602.323,227.125 c -1.543,0 -2.762,-0.605 -3.657,-1.813 -0.898,-1.199 -1.343,-2.847 -1.343,-4.937 0,-2.094 0.441,-3.746 1.328,-4.953 0.894,-1.199 2.117,-1.797 3.672,-1.797 1.527,0 2.742,0.602 3.64,1.813 0.895,1.207 1.344,2.851 1.344,4.937 0,2.07 -0.449,3.711 -1.344,4.922 -0.898,1.215 -2.113,1.828 -3.64,1.828 z m 0,2.437 c 2.496,0 4.461,-0.816 5.89,-2.437 1.426,-1.625 2.141,-3.879 2.141,-6.75 0,-2.867 -0.715,-5.117 -2.141,-6.75 -1.429,-1.625 -3.394,-2.437 -5.89,-2.437 -2.512,0 -4.481,0.812 -5.907,2.437 -1.418,1.633 -2.125,3.883 -2.125,6.75 0,2.871 0.707,5.125 2.125,6.75 1.426,1.621 3.395,2.437 5.907,2.437 z"
         style="fill:#000000;fill-opacity:1;fill-rule:nonzero;stroke:none"
         id="path3180"
         inkscape:export-filename="/home/tinha/mestrado/defesa/imagens/dmec_particoes.png"
         inkscape:export-xdpi="47.453705"
         inkscape:export-ydpi="47.453705" />
      <path
         inkscape:connector-curvature="0"
         d="m 629.643,222.203 0,-10.562 -2.875,0 0,10.468 c 0,1.653 -0.324,2.895 -0.969,3.719 -0.648,0.82 -1.617,1.234 -2.906,1.234 -1.555,0 -2.777,-0.496 -3.672,-1.484 -0.898,-0.992 -1.344,-2.34 -1.344,-4.047 l 0,-9.89 -2.89,0 0,17.5 2.89,0 0,-2.719 c 0.684,1.051 1.493,1.836 2.422,2.359 0.934,0.52 2.016,0.781 3.235,0.781 2.007,0 3.531,-0.628 4.562,-1.874 1.027,-1.243 1.547,-3.071 1.547,-5.485 z"
         style="fill:#000000;fill-opacity:1;fill-rule:nonzero;stroke:none"
         id="path3182"
         inkscape:export-filename="/home/tinha/mestrado/defesa/imagens/dmec_particoes.png"
         inkscape:export-xdpi="47.453705"
         inkscape:export-ydpi="47.453705" />
      <path
         inkscape:connector-curvature="0"
         d="m 646.506,228.625 0,-2.719 c -0.812,0.414 -1.66,0.727 -2.531,0.938 -0.875,0.207 -1.785,0.312 -2.719,0.312 -1.429,0 -2.504,-0.222 -3.218,-0.656 -0.711,-0.438 -1.063,-1.098 -1.063,-1.969 0,-0.668 0.254,-1.195 0.766,-1.578 0.507,-0.375 1.535,-0.738 3.078,-1.078 l 0.984,-0.219 c 2.039,-0.437 3.488,-1.058 4.344,-1.859 0.863,-0.793 1.297,-1.902 1.297,-3.328 0,-1.625 -0.649,-2.914 -1.938,-3.86 -1.281,-0.949 -3.051,-1.421 -5.297,-1.421 -0.937,0 -1.918,0.097 -2.937,0.281 -1.012,0.176 -2.082,0.445 -3.203,0.812 l 0,2.969 c 1.058,-0.555 2.109,-0.973 3.14,-1.25 1.028,-0.273 2.051,-0.406 3.063,-0.406 1.351,0 2.394,0.226 3.125,0.687 0.726,0.465 1.094,1.125 1.094,1.969 0,0.777 -0.27,1.379 -0.797,1.797 -0.524,0.414 -1.676,0.816 -3.453,1.203 l -1,0.234 c -1.782,0.371 -3.071,0.946 -3.86,1.719 -0.793,0.777 -1.187,1.848 -1.187,3.203 0,1.645 0.582,2.914 1.75,3.813 1.164,0.894 2.82,1.343 4.968,1.343 1.059,0 2.063,-0.082 3,-0.234 0.934,-0.156 1.801,-0.394 2.594,-0.703 z"
         style="fill:#000000;fill-opacity:1;fill-rule:nonzero;stroke:none"
         id="path3184"
         inkscape:export-filename="/home/tinha/mestrado/defesa/imagens/dmec_particoes.png"
         inkscape:export-xdpi="47.453705"
         inkscape:export-ydpi="47.453705" />
      <path
         inkscape:connector-curvature="0"
         d="m 752.259,181.137 319.168,0 0,-179.532 -319.168,0 0,179.532 z"
         style="fill:#e6e6e6;fill-opacity:1;fill-rule:nonzero;stroke:#000000;stroke-width:3.20000005;stroke-linecap:round;stroke-linejoin:bevel;stroke-miterlimit:4;stroke-opacity:1;stroke-dasharray:none"
         id="path3186"
         inkscape:export-filename="/home/tinha/mestrado/defesa/imagens/dmec_particoes.png"
         inkscape:export-xdpi="47.453705"
         inkscape:export-ydpi="47.453705" />
      <path
         inkscape:connector-curvature="0"
         d="m 859.029,181.086 0,-179.43"
         style="fill:none;stroke:#000000;stroke-width:2.4000001;stroke-linecap:butt;stroke-linejoin:miter;stroke-miterlimit:4;stroke-opacity:1;stroke-dasharray:none"
         id="path3188"
         inkscape:export-filename="/home/tinha/mestrado/defesa/imagens/dmec_particoes.png"
         inkscape:export-xdpi="47.453705"
         inkscape:export-ydpi="47.453705" />
      <path
         inkscape:connector-curvature="0"
         d="m 964.791,181.086 0,-179.43"
         style="fill:none;stroke:#000000;stroke-width:2.4000001;stroke-linecap:butt;stroke-linejoin:miter;stroke-miterlimit:4;stroke-opacity:1;stroke-dasharray:none"
         id="path3190"
         inkscape:export-filename="/home/tinha/mestrado/defesa/imagens/dmec_particoes.png"
         inkscape:export-xdpi="47.453705"
         inkscape:export-ydpi="47.453705" />
      <path
         inkscape:connector-curvature="0"
         d="m 752.236,90.562 319.211,1.618"
         style="fill:none;stroke:#000000;stroke-width:2.4000001;stroke-linecap:butt;stroke-linejoin:miter;stroke-miterlimit:4;stroke-opacity:1;stroke-dasharray:none"
         id="path3192"
         inkscape:export-filename="/home/tinha/mestrado/defesa/imagens/dmec_particoes.png"
         inkscape:export-xdpi="47.453705"
         inkscape:export-ydpi="47.453705" />
      <path
         inkscape:connector-curvature="0"
         d="m 887.357,254.297 11.016,0 0,-2.656 -14.813,0 0,2.656 c 1.195,1.238 2.828,2.898 4.891,4.984 2.07,2.09 3.375,3.442 3.906,4.047 1.008,1.133 1.711,2.094 2.109,2.875 0.403,0.789 0.61,1.567 0.61,2.328 0,1.239 -0.442,2.25 -1.313,3.031 -0.867,0.778 -1.996,1.172 -3.39,1.172 -0.993,0 -2.039,-0.175 -3.141,-0.515 -1.094,-0.344 -2.27,-0.867 -3.516,-1.563 l 0,3.188 c 1.27,0.508 2.457,0.894 3.563,1.156 1.101,0.258 2.113,0.391 3.031,0.391 2.414,0 4.344,-0.606 5.781,-1.813 1.434,-1.211 2.157,-2.824 2.157,-4.844 0,-0.961 -0.184,-1.871 -0.547,-2.734 -0.356,-0.855 -1.008,-1.867 -1.953,-3.031 -0.262,-0.305 -1.09,-1.18 -2.485,-2.625 -1.398,-1.438 -3.367,-3.457 -5.906,-6.047 z"
         style="fill:#000000;fill-opacity:1;fill-rule:nonzero;stroke:none"
         id="path3194"
         inkscape:export-filename="/home/tinha/mestrado/defesa/imagens/dmec_particoes.png"
         inkscape:export-xdpi="47.453705"
         inkscape:export-ydpi="47.453705" />
      <path
         inkscape:connector-curvature="0"
         d="m 919.13,269.141 -6.328,-8.516 6.657,-8.984 -3.391,0 -5.094,6.875 -5.094,-6.875 -3.39,0 6.797,9.156 -6.219,8.344 3.391,0 4.64,-6.235 4.641,6.235 3.39,0 z"
         style="fill:#000000;fill-opacity:1;fill-rule:nonzero;stroke:none"
         id="path3196"
         inkscape:export-filename="/home/tinha/mestrado/defesa/imagens/dmec_particoes.png"
         inkscape:export-xdpi="47.453705"
         inkscape:export-ydpi="47.453705" />
      <path
         inkscape:connector-curvature="0"
         d="m 933.466,264.219 c 1.508,-0.324 2.688,-0.996 3.532,-2.016 0.851,-1.023 1.281,-2.285 1.281,-3.781 0,-2.305 -0.793,-4.086 -2.375,-5.344 -1.586,-1.262 -3.836,-1.89 -6.75,-1.89 -0.981,0 -1.992,0.101 -3.031,0.296 -1.032,0.184 -2.102,0.473 -3.203,0.86 l 0,3.047 c 0.871,-0.512 1.832,-0.899 2.875,-1.157 1.039,-0.261 2.128,-0.39 3.265,-0.39 1.977,0 3.485,0.39 4.516,1.172 1.039,0.777 1.562,1.914 1.562,3.406 0,1.371 -0.488,2.445 -1.453,3.219 -0.961,0.777 -2.301,1.171 -4.015,1.171 l -2.719,0 0,2.594 2.844,0 c 1.55,0 2.738,0.305 3.562,0.922 0.82,0.621 1.234,1.52 1.234,2.688 0,1.195 -0.429,2.113 -1.281,2.75 -0.844,0.644 -2.058,0.968 -3.64,0.968 -0.868,0 -1.793,-0.097 -2.782,-0.281 -0.992,-0.187 -2.082,-0.48 -3.265,-0.875 l 0,2.813 c 1.195,0.332 2.316,0.582 3.359,0.75 1.051,0.164 2.039,0.25 2.969,0.25 2.394,0 4.289,-0.551 5.687,-1.641 1.395,-1.086 2.094,-2.555 2.094,-4.406 0,-1.293 -0.371,-2.387 -1.109,-3.282 -0.743,-0.886 -1.793,-1.503 -3.157,-1.843 z"
         style="fill:#000000;fill-opacity:1;fill-rule:nonzero;stroke:none"
         id="path3198"
         inkscape:export-filename="/home/tinha/mestrado/defesa/imagens/dmec_particoes.png"
         inkscape:export-xdpi="47.453705"
         inkscape:export-ydpi="47.453705" />
      <path
         inkscape:connector-curvature="0"
         d="m 842.295,232.375 0,-8.766 3.968,0 c 1.465,0 2.602,0.379 3.407,1.141 0.8,0.758 1.203,1.844 1.203,3.25 0,1.395 -0.403,2.473 -1.203,3.234 -0.805,0.758 -1.942,1.141 -3.407,1.141 l -3.968,0 z m -3.157,2.594 7.125,0 c 2.614,0 4.586,-0.598 5.922,-1.781 1.34,-1.18 2.016,-2.911 2.016,-5.188 0,-2.305 -0.676,-4.043 -2.016,-5.219 -1.336,-1.179 -3.308,-1.765 -5.922,-1.765 l -3.968,0 0,-9.375 -3.157,0 0,23.328 z"
         style="fill:#000000;fill-opacity:1;fill-rule:nonzero;stroke:none"
         id="path3200"
         inkscape:export-filename="/home/tinha/mestrado/defesa/imagens/dmec_particoes.png"
         inkscape:export-xdpi="47.453705"
         inkscape:export-ydpi="47.453705" />
      <path
         inkscape:connector-curvature="0"
         d="m 864.853,220.438 c -2.324,0 -3.933,-0.27 -4.828,-0.797 -0.898,-0.532 -1.344,-1.442 -1.344,-2.719 0,-1.024 0.332,-1.836 1,-2.438 0.676,-0.593 1.594,-0.89 2.75,-0.89 1.59,0 2.867,0.562 3.828,1.687 0.965,1.133 1.453,2.641 1.453,4.516 l 0,0.641 -2.859,0 z m 5.735,1.187 0,-9.984 -2.876,0 0,2.656 c -0.656,-1.063 -1.476,-1.852 -2.453,-2.359 -0.98,-0.497 -2.179,-0.75 -3.593,-0.75 -1.793,0 -3.223,0.5 -4.282,1.5 -1.054,1.007 -1.578,2.359 -1.578,4.046 0,1.965 0.656,3.454 1.969,4.454 1.32,0.996 3.289,1.5 5.906,1.5 l 4.031,0 0,0.281 c 0,1.32 -0.441,2.343 -1.312,3.062 -0.867,0.727 -2.086,1.094 -3.656,1.094 -1,0 -1.977,-0.121 -2.922,-0.359 -0.949,-0.243 -1.863,-0.602 -2.734,-1.078 l 0,2.656 c 1.05,0.402 2.07,0.707 3.062,0.906 0.988,0.207 1.953,0.312 2.891,0.312 2.527,0 4.421,-0.66 5.671,-1.968 1.247,-1.313 1.876,-3.305 1.876,-5.969 z"
         style="fill:#000000;fill-opacity:1;fill-rule:nonzero;stroke:none"
         id="path3202"
         inkscape:export-filename="/home/tinha/mestrado/defesa/imagens/dmec_particoes.png"
         inkscape:export-xdpi="47.453705"
         inkscape:export-ydpi="47.453705" />
      <path
         inkscape:connector-curvature="0"
         d="m 886.627,226.453 c -0.325,0.184 -0.68,0.32 -1.063,0.406 -0.375,0.09 -0.793,0.141 -1.25,0.141 -1.625,0 -2.879,-0.535 -3.75,-1.594 -0.867,-1.054 -1.297,-2.57 -1.297,-4.547 l 0,-9.218 -2.89,0 0,17.5 2.89,0 0,-2.719 c 0.602,1.058 1.391,1.848 2.36,2.359 0.964,0.52 2.144,0.781 3.531,0.781 0.195,0 0.414,-0.019 0.656,-0.046 0.238,-0.024 0.504,-0.059 0.797,-0.11 l 0.016,-2.953 z"
         style="fill:#000000;fill-opacity:1;fill-rule:nonzero;stroke:none"
         id="path3204"
         inkscape:export-filename="/home/tinha/mestrado/defesa/imagens/dmec_particoes.png"
         inkscape:export-xdpi="47.453705"
         inkscape:export-ydpi="47.453705" />
      <path
         inkscape:connector-curvature="0"
         d="m 892.482,234.109 0,-4.968 5.922,0 0,-2.235 -5.922,0 0,-9.5 c 0,-1.429 0.191,-2.347 0.578,-2.75 0.395,-0.406 1.192,-0.609 2.391,-0.609 l 2.953,0 0,-2.406 -2.953,0 c -2.219,0 -3.754,0.41 -4.594,1.234 -0.844,0.832 -1.266,2.344 -1.266,4.531 l 0,9.5 -2.109,0 0,2.235 2.109,0 0,4.968 2.891,0 z"
         style="fill:#000000;fill-opacity:1;fill-rule:nonzero;stroke:none"
         id="path3206"
         inkscape:export-filename="/home/tinha/mestrado/defesa/imagens/dmec_particoes.png"
         inkscape:export-xdpi="47.453705"
         inkscape:export-ydpi="47.453705" />
      <path
         inkscape:connector-curvature="0"
         d="m 902.181,229.141 2.875,0 0,-17.5 -2.875,0 0,17.5 z m 0,6.812 2.875,0 0,-3.641 -2.875,0 0,3.641 z"
         style="fill:#000000;fill-opacity:1;fill-rule:nonzero;stroke:none"
         id="path3208"
         inkscape:export-filename="/home/tinha/mestrado/defesa/imagens/dmec_particoes.png"
         inkscape:export-xdpi="47.453705"
         inkscape:export-ydpi="47.453705" />
      <path
         inkscape:connector-curvature="0"
         d="m 913.888,234.109 0,-4.968 5.922,0 0,-2.235 -5.922,0 0,-9.5 c 0,-1.429 0.192,-2.347 0.578,-2.75 0.395,-0.406 1.192,-0.609 2.391,-0.609 l 2.953,0 0,-2.406 -2.953,0 c -2.219,0 -3.754,0.41 -4.594,1.234 -0.843,0.832 -1.265,2.344 -1.265,4.531 l 0,9.5 -2.11,0 0,2.235 2.11,0 0,4.968 2.89,0 z"
         style="fill:#000000;fill-opacity:1;fill-rule:nonzero;stroke:none"
         id="path3210"
         inkscape:export-filename="/home/tinha/mestrado/defesa/imagens/dmec_particoes.png"
         inkscape:export-xdpi="47.453705"
         inkscape:export-ydpi="47.453705" />
      <path
         inkscape:connector-curvature="0"
         d="m 923.591,229.141 2.875,0 0,-17.5 -2.875,0 0,17.5 z m 0,6.812 2.875,0 0,-3.641 -2.875,0 0,3.641 z"
         style="fill:#000000;fill-opacity:1;fill-rule:nonzero;stroke:none"
         id="path3212"
         inkscape:export-filename="/home/tinha/mestrado/defesa/imagens/dmec_particoes.png"
         inkscape:export-xdpi="47.453705"
         inkscape:export-ydpi="47.453705" />
      <path
         inkscape:connector-curvature="0"
         d="m 939.236,227.125 c -1.543,0 -2.762,-0.605 -3.656,-1.813 -0.899,-1.199 -1.344,-2.847 -1.344,-4.937 0,-2.094 0.441,-3.746 1.328,-4.953 0.895,-1.199 2.117,-1.797 3.672,-1.797 1.527,0 2.742,0.602 3.641,1.813 0.894,1.207 1.343,2.851 1.343,4.937 0,2.07 -0.449,3.711 -1.343,4.922 -0.899,1.215 -2.114,1.828 -3.641,1.828 z m 0,2.437 c 2.496,0 4.461,-0.816 5.891,-2.437 1.425,-1.625 2.14,-3.879 2.14,-6.75 0,-2.867 -0.715,-5.117 -2.14,-6.75 -1.43,-1.625 -3.395,-2.437 -5.891,-2.437 -2.512,0 -4.481,0.812 -5.906,2.437 -1.418,1.633 -2.125,3.883 -2.125,6.75 0,2.871 0.707,5.125 2.125,6.75 1.425,1.621 3.394,2.437 5.906,2.437 z"
         style="fill:#000000;fill-opacity:1;fill-rule:nonzero;stroke:none"
         id="path3214"
         inkscape:export-filename="/home/tinha/mestrado/defesa/imagens/dmec_particoes.png"
         inkscape:export-xdpi="47.453705"
         inkscape:export-ydpi="47.453705" />
      <path
         inkscape:connector-curvature="0"
         d="m 966.552,222.203 0,-10.562 -2.875,0 0,10.468 c 0,1.653 -0.324,2.895 -0.968,3.719 -0.649,0.82 -1.618,1.234 -2.907,1.234 -1.554,0 -2.777,-0.496 -3.672,-1.484 -0.898,-0.992 -1.343,-2.34 -1.343,-4.047 l 0,-9.89 -2.891,0 0,17.5 2.891,0 0,-2.719 c 0.683,1.051 1.492,1.836 2.422,2.359 0.933,0.52 2.015,0.781 3.234,0.781 2.008,0 3.531,-0.628 4.562,-1.874 1.028,-1.243 1.547,-3.071 1.547,-5.485 z"
         style="fill:#000000;fill-opacity:1;fill-rule:nonzero;stroke:none"
         id="path3216"
         inkscape:export-filename="/home/tinha/mestrado/defesa/imagens/dmec_particoes.png"
         inkscape:export-xdpi="47.453705"
         inkscape:export-ydpi="47.453705" />
      <path
         inkscape:connector-curvature="0"
         d="m 983.42,228.625 0,-2.719 c -0.813,0.414 -1.661,0.727 -2.532,0.938 -0.875,0.207 -1.785,0.312 -2.718,0.312 -1.43,0 -2.504,-0.222 -3.219,-0.656 -0.711,-0.438 -1.063,-1.098 -1.063,-1.969 0,-0.668 0.254,-1.195 0.766,-1.578 0.508,-0.375 1.535,-0.738 3.078,-1.078 l 0.984,-0.219 c 2.039,-0.437 3.489,-1.058 4.344,-1.859 0.863,-0.793 1.297,-1.902 1.297,-3.328 0,-1.625 -0.648,-2.914 -1.937,-3.86 -1.282,-0.949 -3.051,-1.421 -5.297,-1.421 -0.938,0 -1.918,0.097 -2.938,0.281 -1.012,0.176 -2.082,0.445 -3.203,0.812 l 0,2.969 c 1.059,-0.555 2.109,-0.973 3.141,-1.25 1.027,-0.273 2.05,-0.406 3.062,-0.406 1.352,0 2.395,0.226 3.125,0.687 0.727,0.465 1.094,1.125 1.094,1.969 0,0.777 -0.27,1.379 -0.797,1.797 -0.523,0.414 -1.676,0.816 -3.453,1.203 l -1,0.234 c -1.781,0.371 -3.07,0.946 -3.859,1.719 -0.793,0.777 -1.188,1.848 -1.188,3.203 0,1.645 0.582,2.914 1.75,3.813 1.164,0.894 2.82,1.343 4.969,1.343 1.058,0 2.062,-0.082 3,-0.234 0.933,-0.156 1.801,-0.394 2.594,-0.703 z"
         style="fill:#000000;fill-opacity:1;fill-rule:nonzero;stroke:none"
         id="path3218"
         inkscape:export-filename="/home/tinha/mestrado/defesa/imagens/dmec_particoes.png"
         inkscape:export-xdpi="47.453705"
         inkscape:export-ydpi="47.453705" />
    </g>
  </g>
</svg>
